<?xml version="1.0" encoding="UTF-8" standalone="no"?>
<!DOCTYPE svg PUBLIC "-//W3C//DTD SVG 1.1//EN"
 "http://www.w3.org/Graphics/SVG/1.1/DTD/svg11.dtd">
<!-- Generated by graphviz version 3.0.0 (20220226.1711)
 -->
<!-- Title: snakemake_dag Pages: 1 -->
<svg width="216pt" height="260pt"
 viewBox="0.00 0.00 216.00 260.00" xmlns="http://www.w3.org/2000/svg" xmlns:xlink="http://www.w3.org/1999/xlink">
<g id="graph0" class="graph" transform="scale(1 1) rotate(0) translate(4 256)">
<title>snakemake_dag</title>
<polygon fill="white" stroke="transparent" points="-4,4 -4,-256 212,-256 212,4 -4,4"/>
<!-- 0 -->
<g id="node1" class="node">
<title>0</title>
<path fill="none" stroke="#d6d856" stroke-width="2" d="M118.5,-36C118.5,-36 88.5,-36 88.5,-36 82.5,-36 76.5,-30 76.5,-24 76.5,-24 76.5,-12 76.5,-12 76.5,-6 82.5,0 88.5,0 88.5,0 118.5,0 118.5,0 124.5,0 130.5,-6 130.5,-12 130.5,-12 130.5,-24 130.5,-24 130.5,-30 124.5,-36 118.5,-36"/>
<text text-anchor="middle" x="103.5" y="-15.5" font-family="sans" font-size="10.00">all</text>
</g>
<!-- 1 -->
<g id="node2" class="node">
<title>1</title>
<path fill="none" stroke="#d85656" stroke-width="2" d="M83,-108C83,-108 12,-108 12,-108 6,-108 0,-102 0,-96 0,-96 0,-84 0,-84 0,-78 6,-72 12,-72 12,-72 83,-72 83,-72 89,-72 95,-78 95,-84 95,-84 95,-96 95,-96 95,-102 89,-108 83,-108"/>
<text text-anchor="middle" x="47.5" y="-93" font-family="sans" font-size="10.00">humannTool</text>
<text text-anchor="middle" x="47.5" y="-82" font-family="sans" font-size="10.00">name: map_name</text>
</g>
<!-- 1&#45;&gt;0 -->
<g id="edge1" class="edge">
<title>1&#45;&gt;0</title>
<path fill="none" stroke="grey" stroke-width="2" d="M61.34,-71.7C67.99,-63.39 76.08,-53.28 83.39,-44.14"/>
<polygon fill="grey" stroke="grey" stroke-width="2" points="86.3,-46.1 89.82,-36.1 80.84,-41.73 86.3,-46.1"/>
</g>
<!-- 2 -->
<g id="node3" class="node">
<title>2</title>
<path fill="none" stroke="#56d8d8" stroke-width="2" d="M71,-180C71,-180 24,-180 24,-180 18,-180 12,-174 12,-168 12,-168 12,-156 12,-156 12,-150 18,-144 24,-144 24,-144 71,-144 71,-144 77,-144 83,-150 83,-156 83,-156 83,-168 83,-168 83,-174 77,-180 71,-180"/>
<text text-anchor="middle" x="47.5" y="-159.5" font-family="sans" font-size="10.00">reformat_file</text>
</g>
<!-- 2&#45;&gt;1 -->
<g id="edge3" class="edge">
<title>2&#45;&gt;1</title>
<path fill="none" stroke="grey" stroke-width="2" d="M47.5,-143.7C47.5,-135.98 47.5,-126.71 47.5,-118.11"/>
<polygon fill="grey" stroke="grey" stroke-width="2" points="51,-118.1 47.5,-108.1 44,-118.1 51,-118.1"/>
</g>
<!-- 3 -->
<g id="node4" class="node">
<title>3</title>
<path fill="none" stroke="#59d856" stroke-width="2" d="M71,-252C71,-252 24,-252 24,-252 18,-252 12,-246 12,-240 12,-240 12,-228 12,-228 12,-222 18,-216 24,-216 24,-216 71,-216 71,-216 77,-216 83,-222 83,-228 83,-228 83,-240 83,-240 83,-246 77,-252 71,-252"/>
<text text-anchor="middle" x="47.5" y="-237" font-family="sans" font-size="10.00">kneaddata</text>
<text text-anchor="middle" x="47.5" y="-226" font-family="sans" font-size="10.00">dataset: first</text>
</g>
<!-- 3&#45;&gt;2 -->
<g id="edge4" class="edge">
<title>3&#45;&gt;2</title>
<path fill="none" stroke="grey" stroke-width="2" d="M47.5,-215.7C47.5,-207.98 47.5,-198.71 47.5,-190.11"/>
<polygon fill="grey" stroke="grey" stroke-width="2" points="51,-190.1 47.5,-180.1 44,-190.1 51,-190.1"/>
</g>
<!-- 4 -->
<g id="node5" class="node">
<title>4</title>
<path fill="none" stroke="#d85656" stroke-width="2" d="M196,-108C196,-108 125,-108 125,-108 119,-108 113,-102 113,-96 113,-96 113,-84 113,-84 113,-78 119,-72 125,-72 125,-72 196,-72 196,-72 202,-72 208,-78 208,-84 208,-84 208,-96 208,-96 208,-102 202,-108 196,-108"/>
<text text-anchor="middle" x="160.5" y="-93" font-family="sans" font-size="10.00">humannTool</text>
<text text-anchor="middle" x="160.5" y="-82" font-family="sans" font-size="10.00">name: map_name</text>
</g>
<!-- 4&#45;&gt;0 -->
<g id="edge2" class="edge">
<title>4&#45;&gt;0</title>
<path fill="none" stroke="grey" stroke-width="2" d="M146.41,-71.7C139.58,-63.3 131.24,-53.07 123.74,-43.86"/>
<polygon fill="grey" stroke="grey" stroke-width="2" points="126.46,-41.65 117.43,-36.1 121.03,-46.07 126.46,-41.65"/>
</g>
<!-- 5 -->
<g id="node6" class="node">
<title>5</title>
<path fill="none" stroke="#56d8d8" stroke-width="2" d="M184,-180C184,-180 137,-180 137,-180 131,-180 125,-174 125,-168 125,-168 125,-156 125,-156 125,-150 131,-144 137,-144 137,-144 184,-144 184,-144 190,-144 196,-150 196,-156 196,-156 196,-168 196,-168 196,-174 190,-180 184,-180"/>
<text text-anchor="middle" x="160.5" y="-159.5" font-family="sans" font-size="10.00">reformat_file</text>
</g>
<!-- 5&#45;&gt;4 -->
<g id="edge5" class="edge">
<title>5&#45;&gt;4</title>
<path fill="none" stroke="grey" stroke-width="2" d="M160.5,-143.7C160.5,-135.98 160.5,-126.71 160.5,-118.11"/>
<polygon fill="grey" stroke="grey" stroke-width="2" points="164,-118.1 160.5,-108.1 157,-118.1 164,-118.1"/>
</g>
<!-- 6 -->
<g id="node7" class="node">
<title>6</title>
<path fill="none" stroke="#59d856" stroke-width="2" d="M191.5,-252C191.5,-252 129.5,-252 129.5,-252 123.5,-252 117.5,-246 117.5,-240 117.5,-240 117.5,-228 117.5,-228 117.5,-222 123.5,-216 129.5,-216 129.5,-216 191.5,-216 191.5,-216 197.5,-216 203.5,-222 203.5,-228 203.5,-228 203.5,-240 203.5,-240 203.5,-246 197.5,-252 191.5,-252"/>
<text text-anchor="middle" x="160.5" y="-237" font-family="sans" font-size="10.00">kneaddata</text>
<text text-anchor="middle" x="160.5" y="-226" font-family="sans" font-size="10.00">dataset: second</text>
</g>
<!-- 6&#45;&gt;5 -->
<g id="edge6" class="edge">
<title>6&#45;&gt;5</title>
<path fill="none" stroke="grey" stroke-width="2" d="M160.5,-215.7C160.5,-207.98 160.5,-198.71 160.5,-190.11"/>
<polygon fill="grey" stroke="grey" stroke-width="2" points="164,-190.1 160.5,-180.1 157,-190.1 164,-190.1"/>
</g>
</g>
</svg>
