<?xml version="1.0" encoding="UTF-8" standalone="no"?>
<!DOCTYPE svg PUBLIC "-//W3C//DTD SVG 1.1//EN"
 "http://www.w3.org/Graphics/SVG/1.1/DTD/svg11.dtd">
<!-- Generated by graphviz version 3.0.0 (20220226.1711)
 -->
<!-- Title: snakemake_dag Pages: 1 -->
<svg width="2714pt" height="404pt"
 viewBox="0.00 0.00 2714.00 404.00" xmlns="http://www.w3.org/2000/svg" xmlns:xlink="http://www.w3.org/1999/xlink">
<g id="graph0" class="graph" transform="scale(1 1) rotate(0) translate(4 400)">
<title>snakemake_dag</title>
<polygon fill="white" stroke="transparent" points="-4,4 -4,-400 2710,-400 2710,4 -4,4"/>
<!-- 0 -->
<g id="node1" class="node">
<title>0</title>
<path fill="none" stroke="#d85656" stroke-width="2" d="M1323.5,-36C1323.5,-36 1293.5,-36 1293.5,-36 1287.5,-36 1281.5,-30 1281.5,-24 1281.5,-24 1281.5,-12 1281.5,-12 1281.5,-6 1287.5,0 1293.5,0 1293.5,0 1323.5,0 1323.5,0 1329.5,0 1335.5,-6 1335.5,-12 1335.5,-12 1335.5,-24 1335.5,-24 1335.5,-30 1329.5,-36 1323.5,-36"/>
<text text-anchor="middle" x="1308.5" y="-15.5" font-family="sans" font-size="10.00">all</text>
</g>
<!-- 1 -->
<g id="node2" class="node">
<title>1</title>
<path fill="none" stroke="#56d8c9" stroke-width="2" d="M429,-108C429,-108 386,-108 386,-108 380,-108 374,-102 374,-96 374,-96 374,-84 374,-84 374,-78 380,-72 386,-72 386,-72 429,-72 429,-72 435,-72 441,-78 441,-84 441,-84 441,-96 441,-96 441,-102 435,-108 429,-108"/>
<text text-anchor="middle" x="407.5" y="-87.5" font-family="sans" font-size="10.00">write_to_db</text>
</g>
<!-- 1&#45;&gt;0 -->
<g id="edge1" class="edge">
<title>1&#45;&gt;0</title>
<path fill="none" stroke="grey" stroke-width="2" d="M441.16,-79.03C451.45,-76.33 462.87,-73.69 473.5,-72 778.5,-23.49 1152.83,-19 1270.96,-18.87"/>
<polygon fill="grey" stroke="grey" stroke-width="2" points="1271.26,-22.37 1281.26,-18.87 1271.26,-15.37 1271.26,-22.37"/>
</g>
<!-- 2 -->
<g id="node3" class="node">
<title>2</title>
<path fill="none" stroke="#56d87b" stroke-width="2" d="M373.5,-180C373.5,-180 343.5,-180 343.5,-180 337.5,-180 331.5,-174 331.5,-168 331.5,-168 331.5,-156 331.5,-156 331.5,-150 337.5,-144 343.5,-144 343.5,-144 373.5,-144 373.5,-144 379.5,-144 385.5,-150 385.5,-156 385.5,-156 385.5,-168 385.5,-168 385.5,-174 379.5,-180 373.5,-180"/>
<text text-anchor="middle" x="358.5" y="-159.5" font-family="sans" font-size="10.00">regroup</text>
</g>
<!-- 2&#45;&gt;1 -->
<g id="edge13" class="edge">
<title>2&#45;&gt;1</title>
<path fill="none" stroke="grey" stroke-width="2" d="M370.61,-143.7C376.37,-135.47 383.36,-125.48 389.71,-116.42"/>
<polygon fill="grey" stroke="grey" stroke-width="2" points="392.66,-118.3 395.53,-108.1 386.92,-114.29 392.66,-118.3"/>
</g>
<!-- 3 -->
<g id="node4" class="node">
<title>3</title>
<path fill="none" stroke="#d8a456" stroke-width="2" d="M188,-252C188,-252 47,-252 47,-252 41,-252 35,-246 35,-240 35,-240 35,-228 35,-228 35,-222 41,-216 47,-216 47,-216 188,-216 188,-216 194,-216 200,-222 200,-228 200,-228 200,-240 200,-240 200,-246 194,-252 188,-252"/>
<text text-anchor="middle" x="117.5" y="-237" font-family="sans" font-size="10.00">humannTool</text>
<text text-anchor="middle" x="117.5" y="-226" font-family="sans" font-size="10.00">name: new_dag_2022&#45;06&#45;26_beng</text>
</g>
<!-- 3&#45;&gt;2 -->
<g id="edge14" class="edge">
<title>3&#45;&gt;2</title>
<path fill="none" stroke="grey" stroke-width="2" d="M176.15,-215.97C221.42,-202.81 282.68,-185.02 321.4,-173.78"/>
<polygon fill="grey" stroke="grey" stroke-width="2" points="322.59,-177.08 331.21,-170.93 320.63,-170.35 322.59,-177.08"/>
</g>
<!-- 4 -->
<g id="node5" class="node">
<title>4</title>
<path fill="none" stroke="#56a2d8" stroke-width="2" d="M132,-324C132,-324 85,-324 85,-324 79,-324 73,-318 73,-312 73,-312 73,-300 73,-300 73,-294 79,-288 85,-288 85,-288 132,-288 132,-288 138,-288 144,-294 144,-300 144,-300 144,-312 144,-312 144,-318 138,-324 132,-324"/>
<text text-anchor="middle" x="108.5" y="-303.5" font-family="sans" font-size="10.00">reformat_file</text>
</g>
<!-- 4&#45;&gt;3 -->
<g id="edge15" class="edge">
<title>4&#45;&gt;3</title>
<path fill="none" stroke="grey" stroke-width="2" d="M110.72,-287.7C111.72,-279.98 112.91,-270.71 114.01,-262.11"/>
<polygon fill="grey" stroke="grey" stroke-width="2" points="117.5,-262.47 115.3,-252.1 110.55,-261.58 117.5,-262.47"/>
</g>
<!-- 5 -->
<g id="node6" class="node">
<title>5</title>
<path fill="none" stroke="#78d856" stroke-width="2" d="M197,-396C197,-396 12,-396 12,-396 6,-396 0,-390 0,-384 0,-384 0,-372 0,-372 0,-366 6,-360 12,-360 12,-360 197,-360 197,-360 203,-360 209,-366 209,-372 209,-372 209,-384 209,-384 209,-390 203,-396 197,-396"/>
<text text-anchor="middle" x="104.5" y="-381" font-family="sans" font-size="10.00">kneaddata</text>
<text text-anchor="middle" x="104.5" y="-370" font-family="sans" font-size="10.00">dataset: RBAR_CM3_Run1_T24_S17_L002</text>
</g>
<!-- 5&#45;&gt;4 -->
<g id="edge16" class="edge">
<title>5&#45;&gt;4</title>
<path fill="none" stroke="grey" stroke-width="2" d="M105.49,-359.7C105.93,-351.98 106.46,-342.71 106.95,-334.11"/>
<polygon fill="grey" stroke="grey" stroke-width="2" points="110.45,-334.29 107.52,-324.1 103.46,-333.89 110.45,-334.29"/>
</g>
<!-- 6 -->
<g id="node7" class="node">
<title>6</title>
<path fill="none" stroke="#56d8c9" stroke-width="2" d="M538,-108C538,-108 495,-108 495,-108 489,-108 483,-102 483,-96 483,-96 483,-84 483,-84 483,-78 489,-72 495,-72 495,-72 538,-72 538,-72 544,-72 550,-78 550,-84 550,-84 550,-96 550,-96 550,-102 544,-108 538,-108"/>
<text text-anchor="middle" x="516.5" y="-87.5" font-family="sans" font-size="10.00">write_to_db</text>
</g>
<!-- 6&#45;&gt;0 -->
<g id="edge2" class="edge">
<title>6&#45;&gt;0</title>
<path fill="none" stroke="grey" stroke-width="2" d="M550.03,-86.04C678.16,-74.71 1136.49,-34.2 1271.08,-22.31"/>
<polygon fill="grey" stroke="grey" stroke-width="2" points="1271.64,-25.77 1281.29,-21.4 1271.02,-18.8 1271.64,-25.77"/>
</g>
<!-- 7 -->
<g id="node8" class="node">
<title>7</title>
<path fill="none" stroke="#56d87b" stroke-width="2" d="M488.5,-180C488.5,-180 458.5,-180 458.5,-180 452.5,-180 446.5,-174 446.5,-168 446.5,-168 446.5,-156 446.5,-156 446.5,-150 452.5,-144 458.5,-144 458.5,-144 488.5,-144 488.5,-144 494.5,-144 500.5,-150 500.5,-156 500.5,-156 500.5,-168 500.5,-168 500.5,-174 494.5,-180 488.5,-180"/>
<text text-anchor="middle" x="473.5" y="-159.5" font-family="sans" font-size="10.00">regroup</text>
</g>
<!-- 7&#45;&gt;6 -->
<g id="edge17" class="edge">
<title>7&#45;&gt;6</title>
<path fill="none" stroke="grey" stroke-width="2" d="M484.13,-143.7C489.13,-135.56 495.19,-125.69 500.71,-116.7"/>
<polygon fill="grey" stroke="grey" stroke-width="2" points="503.74,-118.46 505.99,-108.1 497.78,-114.79 503.74,-118.46"/>
</g>
<!-- 8 -->
<g id="node9" class="node">
<title>8</title>
<path fill="none" stroke="#d8a456" stroke-width="2" d="M492,-252C492,-252 351,-252 351,-252 345,-252 339,-246 339,-240 339,-240 339,-228 339,-228 339,-222 345,-216 351,-216 351,-216 492,-216 492,-216 498,-216 504,-222 504,-228 504,-228 504,-240 504,-240 504,-246 498,-252 492,-252"/>
<text text-anchor="middle" x="421.5" y="-237" font-family="sans" font-size="10.00">humannTool</text>
<text text-anchor="middle" x="421.5" y="-226" font-family="sans" font-size="10.00">name: new_dag_2022&#45;06&#45;26_beng</text>
</g>
<!-- 8&#45;&gt;7 -->
<g id="edge18" class="edge">
<title>8&#45;&gt;7</title>
<path fill="none" stroke="grey" stroke-width="2" d="M434.35,-215.7C440.53,-207.39 448.04,-197.28 454.82,-188.14"/>
<polygon fill="grey" stroke="grey" stroke-width="2" points="457.64,-190.22 460.79,-180.1 452.02,-186.04 457.64,-190.22"/>
</g>
<!-- 9 -->
<g id="node10" class="node">
<title>9</title>
<path fill="none" stroke="#56a2d8" stroke-width="2" d="M397,-324C397,-324 350,-324 350,-324 344,-324 338,-318 338,-312 338,-312 338,-300 338,-300 338,-294 344,-288 350,-288 350,-288 397,-288 397,-288 403,-288 409,-294 409,-300 409,-300 409,-312 409,-312 409,-318 403,-324 397,-324"/>
<text text-anchor="middle" x="373.5" y="-303.5" font-family="sans" font-size="10.00">reformat_file</text>
</g>
<!-- 9&#45;&gt;8 -->
<g id="edge19" class="edge">
<title>9&#45;&gt;8</title>
<path fill="none" stroke="grey" stroke-width="2" d="M385.37,-287.7C391,-279.47 397.85,-269.48 404.07,-260.42"/>
<polygon fill="grey" stroke="grey" stroke-width="2" points="407,-262.33 409.77,-252.1 401.23,-258.37 407,-262.33"/>
</g>
<!-- 10 -->
<g id="node11" class="node">
<title>10</title>
<path fill="none" stroke="#78d856" stroke-width="2" d="M424,-396C424,-396 239,-396 239,-396 233,-396 227,-390 227,-384 227,-384 227,-372 227,-372 227,-366 233,-360 239,-360 239,-360 424,-360 424,-360 430,-360 436,-366 436,-372 436,-372 436,-384 436,-384 436,-390 430,-396 424,-396"/>
<text text-anchor="middle" x="331.5" y="-381" font-family="sans" font-size="10.00">kneaddata</text>
<text text-anchor="middle" x="331.5" y="-370" font-family="sans" font-size="10.00">dataset: RBAR_CM3_Run2_T24_S19_L002</text>
</g>
<!-- 10&#45;&gt;9 -->
<g id="edge20" class="edge">
<title>10&#45;&gt;9</title>
<path fill="none" stroke="grey" stroke-width="2" d="M341.88,-359.7C346.76,-351.56 352.69,-341.69 358.08,-332.7"/>
<polygon fill="grey" stroke="grey" stroke-width="2" points="361.09,-334.48 363.24,-324.1 355.09,-330.88 361.09,-334.48"/>
</g>
<!-- 11 -->
<g id="node12" class="node">
<title>11</title>
<path fill="none" stroke="#56d8c9" stroke-width="2" d="M784,-108C784,-108 741,-108 741,-108 735,-108 729,-102 729,-96 729,-96 729,-84 729,-84 729,-78 735,-72 741,-72 741,-72 784,-72 784,-72 790,-72 796,-78 796,-84 796,-84 796,-96 796,-96 796,-102 790,-108 784,-108"/>
<text text-anchor="middle" x="762.5" y="-87.5" font-family="sans" font-size="10.00">write_to_db</text>
</g>
<!-- 11&#45;&gt;0 -->
<g id="edge3" class="edge">
<title>11&#45;&gt;0</title>
<path fill="none" stroke="grey" stroke-width="2" d="M796.24,-84.67C892.91,-72.28 1170.4,-36.71 1271.27,-23.77"/>
<polygon fill="grey" stroke="grey" stroke-width="2" points="1271.83,-27.23 1281.3,-22.49 1270.94,-20.29 1271.83,-27.23"/>
</g>
<!-- 12 -->
<g id="node13" class="node">
<title>12</title>
<path fill="none" stroke="#56d87b" stroke-width="2" d="M728.5,-180C728.5,-180 698.5,-180 698.5,-180 692.5,-180 686.5,-174 686.5,-168 686.5,-168 686.5,-156 686.5,-156 686.5,-150 692.5,-144 698.5,-144 698.5,-144 728.5,-144 728.5,-144 734.5,-144 740.5,-150 740.5,-156 740.5,-156 740.5,-168 740.5,-168 740.5,-174 734.5,-180 728.5,-180"/>
<text text-anchor="middle" x="713.5" y="-159.5" font-family="sans" font-size="10.00">regroup</text>
</g>
<!-- 12&#45;&gt;11 -->
<g id="edge21" class="edge">
<title>12&#45;&gt;11</title>
<path fill="none" stroke="grey" stroke-width="2" d="M725.61,-143.7C731.37,-135.47 738.36,-125.48 744.71,-116.42"/>
<polygon fill="grey" stroke="grey" stroke-width="2" points="747.66,-118.3 750.53,-108.1 741.92,-114.29 747.66,-118.3"/>
</g>
<!-- 13 -->
<g id="node14" class="node">
<title>13</title>
<path fill="none" stroke="#d8a456" stroke-width="2" d="M735,-252C735,-252 594,-252 594,-252 588,-252 582,-246 582,-240 582,-240 582,-228 582,-228 582,-222 588,-216 594,-216 594,-216 735,-216 735,-216 741,-216 747,-222 747,-228 747,-228 747,-240 747,-240 747,-246 741,-252 735,-252"/>
<text text-anchor="middle" x="664.5" y="-237" font-family="sans" font-size="10.00">humannTool</text>
<text text-anchor="middle" x="664.5" y="-226" font-family="sans" font-size="10.00">name: new_dag_2022&#45;06&#45;26_beng</text>
</g>
<!-- 13&#45;&gt;12 -->
<g id="edge22" class="edge">
<title>13&#45;&gt;12</title>
<path fill="none" stroke="grey" stroke-width="2" d="M676.61,-215.7C682.37,-207.47 689.36,-197.48 695.71,-188.42"/>
<polygon fill="grey" stroke="grey" stroke-width="2" points="698.66,-190.3 701.53,-180.1 692.92,-186.29 698.66,-190.3"/>
</g>
<!-- 14 -->
<g id="node15" class="node">
<title>14</title>
<path fill="none" stroke="#56a2d8" stroke-width="2" d="M632,-324C632,-324 585,-324 585,-324 579,-324 573,-318 573,-312 573,-312 573,-300 573,-300 573,-294 579,-288 585,-288 585,-288 632,-288 632,-288 638,-288 644,-294 644,-300 644,-300 644,-312 644,-312 644,-318 638,-324 632,-324"/>
<text text-anchor="middle" x="608.5" y="-303.5" font-family="sans" font-size="10.00">reformat_file</text>
</g>
<!-- 14&#45;&gt;13 -->
<g id="edge23" class="edge">
<title>14&#45;&gt;13</title>
<path fill="none" stroke="grey" stroke-width="2" d="M622.34,-287.7C628.99,-279.39 637.08,-269.28 644.39,-260.14"/>
<polygon fill="grey" stroke="grey" stroke-width="2" points="647.3,-262.1 650.82,-252.1 641.84,-257.73 647.3,-262.1"/>
</g>
<!-- 15 -->
<g id="node16" class="node">
<title>15</title>
<path fill="none" stroke="#78d856" stroke-width="2" d="M651,-396C651,-396 466,-396 466,-396 460,-396 454,-390 454,-384 454,-384 454,-372 454,-372 454,-366 460,-360 466,-360 466,-360 651,-360 651,-360 657,-360 663,-366 663,-372 663,-372 663,-384 663,-384 663,-390 657,-396 651,-396"/>
<text text-anchor="middle" x="558.5" y="-381" font-family="sans" font-size="10.00">kneaddata</text>
<text text-anchor="middle" x="558.5" y="-370" font-family="sans" font-size="10.00">dataset: RBAR_CM1_Run2_T24_S13_L002</text>
</g>
<!-- 15&#45;&gt;14 -->
<g id="edge24" class="edge">
<title>15&#45;&gt;14</title>
<path fill="none" stroke="grey" stroke-width="2" d="M570.86,-359.7C576.73,-351.47 583.87,-341.48 590.34,-332.42"/>
<polygon fill="grey" stroke="grey" stroke-width="2" points="593.32,-334.28 596.28,-324.1 587.62,-330.21 593.32,-334.28"/>
</g>
<!-- 16 -->
<g id="node17" class="node">
<title>16</title>
<path fill="none" stroke="#56d8c9" stroke-width="2" d="M997,-108C997,-108 954,-108 954,-108 948,-108 942,-102 942,-96 942,-96 942,-84 942,-84 942,-78 948,-72 954,-72 954,-72 997,-72 997,-72 1003,-72 1009,-78 1009,-84 1009,-84 1009,-96 1009,-96 1009,-102 1003,-108 997,-108"/>
<text text-anchor="middle" x="975.5" y="-87.5" font-family="sans" font-size="10.00">write_to_db</text>
</g>
<!-- 16&#45;&gt;0 -->
<g id="edge4" class="edge">
<title>16&#45;&gt;0</title>
<path fill="none" stroke="grey" stroke-width="2" d="M1009.26,-81.9C1072.04,-68.71 1206.27,-40.49 1271.46,-26.79"/>
<polygon fill="grey" stroke="grey" stroke-width="2" points="1272.24,-30.2 1281.3,-24.72 1270.8,-23.35 1272.24,-30.2"/>
</g>
<!-- 17 -->
<g id="node18" class="node">
<title>17</title>
<path fill="none" stroke="#56d87b" stroke-width="2" d="M941.5,-180C941.5,-180 911.5,-180 911.5,-180 905.5,-180 899.5,-174 899.5,-168 899.5,-168 899.5,-156 899.5,-156 899.5,-150 905.5,-144 911.5,-144 911.5,-144 941.5,-144 941.5,-144 947.5,-144 953.5,-150 953.5,-156 953.5,-156 953.5,-168 953.5,-168 953.5,-174 947.5,-180 941.5,-180"/>
<text text-anchor="middle" x="926.5" y="-159.5" font-family="sans" font-size="10.00">regroup</text>
</g>
<!-- 17&#45;&gt;16 -->
<g id="edge25" class="edge">
<title>17&#45;&gt;16</title>
<path fill="none" stroke="grey" stroke-width="2" d="M938.61,-143.7C944.37,-135.47 951.36,-125.48 957.71,-116.42"/>
<polygon fill="grey" stroke="grey" stroke-width="2" points="960.66,-118.3 963.53,-108.1 954.92,-114.29 960.66,-118.3"/>
</g>
<!-- 18 -->
<g id="node19" class="node">
<title>18</title>
<path fill="none" stroke="#d8a456" stroke-width="2" d="M948,-252C948,-252 807,-252 807,-252 801,-252 795,-246 795,-240 795,-240 795,-228 795,-228 795,-222 801,-216 807,-216 807,-216 948,-216 948,-216 954,-216 960,-222 960,-228 960,-228 960,-240 960,-240 960,-246 954,-252 948,-252"/>
<text text-anchor="middle" x="877.5" y="-237" font-family="sans" font-size="10.00">humannTool</text>
<text text-anchor="middle" x="877.5" y="-226" font-family="sans" font-size="10.00">name: new_dag_2022&#45;06&#45;26_beng</text>
</g>
<!-- 18&#45;&gt;17 -->
<g id="edge26" class="edge">
<title>18&#45;&gt;17</title>
<path fill="none" stroke="grey" stroke-width="2" d="M889.61,-215.7C895.37,-207.47 902.36,-197.48 908.71,-188.42"/>
<polygon fill="grey" stroke="grey" stroke-width="2" points="911.66,-190.3 914.53,-180.1 905.92,-186.29 911.66,-190.3"/>
</g>
<!-- 19 -->
<g id="node20" class="node">
<title>19</title>
<path fill="none" stroke="#56a2d8" stroke-width="2" d="M852,-324C852,-324 805,-324 805,-324 799,-324 793,-318 793,-312 793,-312 793,-300 793,-300 793,-294 799,-288 805,-288 805,-288 852,-288 852,-288 858,-288 864,-294 864,-300 864,-300 864,-312 864,-312 864,-318 858,-324 852,-324"/>
<text text-anchor="middle" x="828.5" y="-303.5" font-family="sans" font-size="10.00">reformat_file</text>
</g>
<!-- 19&#45;&gt;18 -->
<g id="edge27" class="edge">
<title>19&#45;&gt;18</title>
<path fill="none" stroke="grey" stroke-width="2" d="M840.61,-287.7C846.37,-279.47 853.36,-269.48 859.71,-260.42"/>
<polygon fill="grey" stroke="grey" stroke-width="2" points="862.66,-262.3 865.53,-252.1 856.92,-258.29 862.66,-262.3"/>
</g>
<!-- 20 -->
<g id="node21" class="node">
<title>20</title>
<path fill="none" stroke="#78d856" stroke-width="2" d="M878,-396C878,-396 693,-396 693,-396 687,-396 681,-390 681,-384 681,-384 681,-372 681,-372 681,-366 687,-360 693,-360 693,-360 878,-360 878,-360 884,-360 890,-366 890,-372 890,-372 890,-384 890,-384 890,-390 884,-396 878,-396"/>
<text text-anchor="middle" x="785.5" y="-381" font-family="sans" font-size="10.00">kneaddata</text>
<text text-anchor="middle" x="785.5" y="-370" font-family="sans" font-size="10.00">dataset: RBAR_CM1_Run1_T24_S11_L002</text>
</g>
<!-- 20&#45;&gt;19 -->
<g id="edge28" class="edge">
<title>20&#45;&gt;19</title>
<path fill="none" stroke="grey" stroke-width="2" d="M796.13,-359.7C801.13,-351.56 807.19,-341.69 812.71,-332.7"/>
<polygon fill="grey" stroke="grey" stroke-width="2" points="815.74,-334.46 817.99,-324.1 809.78,-330.79 815.74,-334.46"/>
</g>
<!-- 21 -->
<g id="node22" class="node">
<title>21</title>
<path fill="none" stroke="#56d8c9" stroke-width="2" d="M1170,-108C1170,-108 1127,-108 1127,-108 1121,-108 1115,-102 1115,-96 1115,-96 1115,-84 1115,-84 1115,-78 1121,-72 1127,-72 1127,-72 1170,-72 1170,-72 1176,-72 1182,-78 1182,-84 1182,-84 1182,-96 1182,-96 1182,-102 1176,-108 1170,-108"/>
<text text-anchor="middle" x="1148.5" y="-87.5" font-family="sans" font-size="10.00">write_to_db</text>
</g>
<!-- 21&#45;&gt;0 -->
<g id="edge5" class="edge">
<title>21&#45;&gt;0</title>
<path fill="none" stroke="grey" stroke-width="2" d="M1182.04,-74.33C1208.32,-62.83 1244.84,-46.85 1271.87,-35.02"/>
<polygon fill="grey" stroke="grey" stroke-width="2" points="1273.61,-38.08 1281.37,-30.87 1270.81,-31.67 1273.61,-38.08"/>
</g>
<!-- 22 -->
<g id="node23" class="node">
<title>22</title>
<path fill="none" stroke="#56d87b" stroke-width="2" d="M1114.5,-180C1114.5,-180 1084.5,-180 1084.5,-180 1078.5,-180 1072.5,-174 1072.5,-168 1072.5,-168 1072.5,-156 1072.5,-156 1072.5,-150 1078.5,-144 1084.5,-144 1084.5,-144 1114.5,-144 1114.5,-144 1120.5,-144 1126.5,-150 1126.5,-156 1126.5,-156 1126.5,-168 1126.5,-168 1126.5,-174 1120.5,-180 1114.5,-180"/>
<text text-anchor="middle" x="1099.5" y="-159.5" font-family="sans" font-size="10.00">regroup</text>
</g>
<!-- 22&#45;&gt;21 -->
<g id="edge29" class="edge">
<title>22&#45;&gt;21</title>
<path fill="none" stroke="grey" stroke-width="2" d="M1111.61,-143.7C1117.37,-135.47 1124.36,-125.48 1130.71,-116.42"/>
<polygon fill="grey" stroke="grey" stroke-width="2" points="1133.66,-118.3 1136.53,-108.1 1127.92,-114.29 1133.66,-118.3"/>
</g>
<!-- 23 -->
<g id="node24" class="node">
<title>23</title>
<path fill="none" stroke="#d8a456" stroke-width="2" d="M1146,-252C1146,-252 1005,-252 1005,-252 999,-252 993,-246 993,-240 993,-240 993,-228 993,-228 993,-222 999,-216 1005,-216 1005,-216 1146,-216 1146,-216 1152,-216 1158,-222 1158,-228 1158,-228 1158,-240 1158,-240 1158,-246 1152,-252 1146,-252"/>
<text text-anchor="middle" x="1075.5" y="-237" font-family="sans" font-size="10.00">humannTool</text>
<text text-anchor="middle" x="1075.5" y="-226" font-family="sans" font-size="10.00">name: new_dag_2022&#45;06&#45;26_beng</text>
</g>
<!-- 23&#45;&gt;22 -->
<g id="edge30" class="edge">
<title>23&#45;&gt;22</title>
<path fill="none" stroke="grey" stroke-width="2" d="M1081.43,-215.7C1084.11,-207.9 1087.33,-198.51 1090.3,-189.83"/>
<polygon fill="grey" stroke="grey" stroke-width="2" points="1093.7,-190.7 1093.64,-180.1 1087.08,-188.43 1093.7,-190.7"/>
</g>
<!-- 24 -->
<g id="node25" class="node">
<title>24</title>
<path fill="none" stroke="#56a2d8" stroke-width="2" d="M1065,-324C1065,-324 1018,-324 1018,-324 1012,-324 1006,-318 1006,-312 1006,-312 1006,-300 1006,-300 1006,-294 1012,-288 1018,-288 1018,-288 1065,-288 1065,-288 1071,-288 1077,-294 1077,-300 1077,-300 1077,-312 1077,-312 1077,-318 1071,-324 1065,-324"/>
<text text-anchor="middle" x="1041.5" y="-303.5" font-family="sans" font-size="10.00">reformat_file</text>
</g>
<!-- 24&#45;&gt;23 -->
<g id="edge31" class="edge">
<title>24&#45;&gt;23</title>
<path fill="none" stroke="grey" stroke-width="2" d="M1049.9,-287.7C1053.77,-279.73 1058.45,-270.1 1062.74,-261.26"/>
<polygon fill="grey" stroke="grey" stroke-width="2" points="1065.97,-262.63 1067.19,-252.1 1059.67,-259.57 1065.97,-262.63"/>
</g>
<!-- 25 -->
<g id="node26" class="node">
<title>25</title>
<path fill="none" stroke="#78d856" stroke-width="2" d="M1105,-396C1105,-396 920,-396 920,-396 914,-396 908,-390 908,-384 908,-384 908,-372 908,-372 908,-366 914,-360 920,-360 920,-360 1105,-360 1105,-360 1111,-360 1117,-366 1117,-372 1117,-372 1117,-384 1117,-384 1117,-390 1111,-396 1105,-396"/>
<text text-anchor="middle" x="1012.5" y="-381" font-family="sans" font-size="10.00">kneaddata</text>
<text text-anchor="middle" x="1012.5" y="-370" font-family="sans" font-size="10.00">dataset: RBAR_CM1_Run2_T48_S14_L002</text>
</g>
<!-- 25&#45;&gt;24 -->
<g id="edge32" class="edge">
<title>25&#45;&gt;24</title>
<path fill="none" stroke="grey" stroke-width="2" d="M1019.67,-359.7C1022.93,-351.81 1026.87,-342.3 1030.5,-333.55"/>
<polygon fill="grey" stroke="grey" stroke-width="2" points="1033.82,-334.68 1034.41,-324.1 1027.35,-332 1033.82,-334.68"/>
</g>
<!-- 26 -->
<g id="node27" class="node">
<title>26</title>
<path fill="none" stroke="#56d8c9" stroke-width="2" d="M1288,-108C1288,-108 1245,-108 1245,-108 1239,-108 1233,-102 1233,-96 1233,-96 1233,-84 1233,-84 1233,-78 1239,-72 1245,-72 1245,-72 1288,-72 1288,-72 1294,-72 1300,-78 1300,-84 1300,-84 1300,-96 1300,-96 1300,-102 1294,-108 1288,-108"/>
<text text-anchor="middle" x="1266.5" y="-87.5" font-family="sans" font-size="10.00">write_to_db</text>
</g>
<!-- 26&#45;&gt;0 -->
<g id="edge6" class="edge">
<title>26&#45;&gt;0</title>
<path fill="none" stroke="grey" stroke-width="2" d="M1276.88,-71.7C1281.76,-63.56 1287.69,-53.69 1293.08,-44.7"/>
<polygon fill="grey" stroke="grey" stroke-width="2" points="1296.09,-46.48 1298.24,-36.1 1290.09,-42.88 1296.09,-46.48"/>
</g>
<!-- 27 -->
<g id="node28" class="node">
<title>27</title>
<path fill="none" stroke="#56d87b" stroke-width="2" d="M1281.5,-180C1281.5,-180 1251.5,-180 1251.5,-180 1245.5,-180 1239.5,-174 1239.5,-168 1239.5,-168 1239.5,-156 1239.5,-156 1239.5,-150 1245.5,-144 1251.5,-144 1251.5,-144 1281.5,-144 1281.5,-144 1287.5,-144 1293.5,-150 1293.5,-156 1293.5,-156 1293.5,-168 1293.5,-168 1293.5,-174 1287.5,-180 1281.5,-180"/>
<text text-anchor="middle" x="1266.5" y="-159.5" font-family="sans" font-size="10.00">regroup</text>
</g>
<!-- 27&#45;&gt;26 -->
<g id="edge33" class="edge">
<title>27&#45;&gt;26</title>
<path fill="none" stroke="grey" stroke-width="2" d="M1266.5,-143.7C1266.5,-135.98 1266.5,-126.71 1266.5,-118.11"/>
<polygon fill="grey" stroke="grey" stroke-width="2" points="1270,-118.1 1266.5,-108.1 1263,-118.1 1270,-118.1"/>
</g>
<!-- 28 -->
<g id="node29" class="node">
<title>28</title>
<path fill="none" stroke="#d8a456" stroke-width="2" d="M1337,-252C1337,-252 1196,-252 1196,-252 1190,-252 1184,-246 1184,-240 1184,-240 1184,-228 1184,-228 1184,-222 1190,-216 1196,-216 1196,-216 1337,-216 1337,-216 1343,-216 1349,-222 1349,-228 1349,-228 1349,-240 1349,-240 1349,-246 1343,-252 1337,-252"/>
<text text-anchor="middle" x="1266.5" y="-237" font-family="sans" font-size="10.00">humannTool</text>
<text text-anchor="middle" x="1266.5" y="-226" font-family="sans" font-size="10.00">name: new_dag_2022&#45;06&#45;26_beng</text>
</g>
<!-- 28&#45;&gt;27 -->
<g id="edge34" class="edge">
<title>28&#45;&gt;27</title>
<path fill="none" stroke="grey" stroke-width="2" d="M1266.5,-215.7C1266.5,-207.98 1266.5,-198.71 1266.5,-190.11"/>
<polygon fill="grey" stroke="grey" stroke-width="2" points="1270,-190.1 1266.5,-180.1 1263,-190.1 1270,-190.1"/>
</g>
<!-- 29 -->
<g id="node30" class="node">
<title>29</title>
<path fill="none" stroke="#56a2d8" stroke-width="2" d="M1268,-324C1268,-324 1221,-324 1221,-324 1215,-324 1209,-318 1209,-312 1209,-312 1209,-300 1209,-300 1209,-294 1215,-288 1221,-288 1221,-288 1268,-288 1268,-288 1274,-288 1280,-294 1280,-300 1280,-300 1280,-312 1280,-312 1280,-318 1274,-324 1268,-324"/>
<text text-anchor="middle" x="1244.5" y="-303.5" font-family="sans" font-size="10.00">reformat_file</text>
</g>
<!-- 29&#45;&gt;28 -->
<g id="edge35" class="edge">
<title>29&#45;&gt;28</title>
<path fill="none" stroke="grey" stroke-width="2" d="M1249.94,-287.7C1252.39,-279.9 1255.34,-270.51 1258.07,-261.83"/>
<polygon fill="grey" stroke="grey" stroke-width="2" points="1261.46,-262.69 1261.12,-252.1 1254.79,-260.59 1261.46,-262.69"/>
</g>
<!-- 30 -->
<g id="node31" class="node">
<title>30</title>
<path fill="none" stroke="#78d856" stroke-width="2" d="M1332,-396C1332,-396 1147,-396 1147,-396 1141,-396 1135,-390 1135,-384 1135,-384 1135,-372 1135,-372 1135,-366 1141,-360 1147,-360 1147,-360 1332,-360 1332,-360 1338,-360 1344,-366 1344,-372 1344,-372 1344,-384 1344,-384 1344,-390 1338,-396 1332,-396"/>
<text text-anchor="middle" x="1239.5" y="-381" font-family="sans" font-size="10.00">kneaddata</text>
<text text-anchor="middle" x="1239.5" y="-370" font-family="sans" font-size="10.00">dataset: RBAR_CM3_Run3_T48_S22_L002</text>
</g>
<!-- 30&#45;&gt;29 -->
<g id="edge36" class="edge">
<title>30&#45;&gt;29</title>
<path fill="none" stroke="grey" stroke-width="2" d="M1240.74,-359.7C1241.29,-351.98 1241.95,-342.71 1242.56,-334.11"/>
<polygon fill="grey" stroke="grey" stroke-width="2" points="1246.06,-334.33 1243.28,-324.1 1239.07,-333.83 1246.06,-334.33"/>
</g>
<!-- 31 -->
<g id="node32" class="node">
<title>31</title>
<path fill="none" stroke="#56d8c9" stroke-width="2" d="M1389,-108C1389,-108 1346,-108 1346,-108 1340,-108 1334,-102 1334,-96 1334,-96 1334,-84 1334,-84 1334,-78 1340,-72 1346,-72 1346,-72 1389,-72 1389,-72 1395,-72 1401,-78 1401,-84 1401,-84 1401,-96 1401,-96 1401,-102 1395,-108 1389,-108"/>
<text text-anchor="middle" x="1367.5" y="-87.5" font-family="sans" font-size="10.00">write_to_db</text>
</g>
<!-- 31&#45;&gt;0 -->
<g id="edge7" class="edge">
<title>31&#45;&gt;0</title>
<path fill="none" stroke="grey" stroke-width="2" d="M1352.92,-71.7C1345.84,-63.3 1337.22,-53.07 1329.45,-43.86"/>
<polygon fill="grey" stroke="grey" stroke-width="2" points="1332.04,-41.49 1322.92,-36.1 1326.69,-46.01 1332.04,-41.49"/>
</g>
<!-- 32 -->
<g id="node33" class="node">
<title>32</title>
<path fill="none" stroke="#56d87b" stroke-width="2" d="M1424.5,-180C1424.5,-180 1394.5,-180 1394.5,-180 1388.5,-180 1382.5,-174 1382.5,-168 1382.5,-168 1382.5,-156 1382.5,-156 1382.5,-150 1388.5,-144 1394.5,-144 1394.5,-144 1424.5,-144 1424.5,-144 1430.5,-144 1436.5,-150 1436.5,-156 1436.5,-156 1436.5,-168 1436.5,-168 1436.5,-174 1430.5,-180 1424.5,-180"/>
<text text-anchor="middle" x="1409.5" y="-159.5" font-family="sans" font-size="10.00">regroup</text>
</g>
<!-- 32&#45;&gt;31 -->
<g id="edge37" class="edge">
<title>32&#45;&gt;31</title>
<path fill="none" stroke="grey" stroke-width="2" d="M1399.12,-143.7C1394.24,-135.56 1388.31,-125.69 1382.92,-116.7"/>
<polygon fill="grey" stroke="grey" stroke-width="2" points="1385.91,-114.88 1377.76,-108.1 1379.91,-118.48 1385.91,-114.88"/>
</g>
<!-- 33 -->
<g id="node34" class="node">
<title>33</title>
<path fill="none" stroke="#d8a456" stroke-width="2" d="M1531,-252C1531,-252 1390,-252 1390,-252 1384,-252 1378,-246 1378,-240 1378,-240 1378,-228 1378,-228 1378,-222 1384,-216 1390,-216 1390,-216 1531,-216 1531,-216 1537,-216 1543,-222 1543,-228 1543,-228 1543,-240 1543,-240 1543,-246 1537,-252 1531,-252"/>
<text text-anchor="middle" x="1460.5" y="-237" font-family="sans" font-size="10.00">humannTool</text>
<text text-anchor="middle" x="1460.5" y="-226" font-family="sans" font-size="10.00">name: new_dag_2022&#45;06&#45;26_beng</text>
</g>
<!-- 33&#45;&gt;32 -->
<g id="edge38" class="edge">
<title>33&#45;&gt;32</title>
<path fill="none" stroke="grey" stroke-width="2" d="M1447.89,-215.7C1441.9,-207.47 1434.62,-197.48 1428.02,-188.42"/>
<polygon fill="grey" stroke="grey" stroke-width="2" points="1430.68,-186.13 1421.96,-180.1 1425.02,-190.25 1430.68,-186.13"/>
</g>
<!-- 34 -->
<g id="node35" class="node">
<title>34</title>
<path fill="none" stroke="#56a2d8" stroke-width="2" d="M1487,-324C1487,-324 1440,-324 1440,-324 1434,-324 1428,-318 1428,-312 1428,-312 1428,-300 1428,-300 1428,-294 1434,-288 1440,-288 1440,-288 1487,-288 1487,-288 1493,-288 1499,-294 1499,-300 1499,-300 1499,-312 1499,-312 1499,-318 1493,-324 1487,-324"/>
<text text-anchor="middle" x="1463.5" y="-303.5" font-family="sans" font-size="10.00">reformat_file</text>
</g>
<!-- 34&#45;&gt;33 -->
<g id="edge39" class="edge">
<title>34&#45;&gt;33</title>
<path fill="none" stroke="grey" stroke-width="2" d="M1462.76,-287.7C1462.43,-279.98 1462.03,-270.71 1461.66,-262.11"/>
<polygon fill="grey" stroke="grey" stroke-width="2" points="1465.16,-261.95 1461.23,-252.1 1458.16,-262.25 1465.16,-261.95"/>
</g>
<!-- 35 -->
<g id="node36" class="node">
<title>35</title>
<path fill="none" stroke="#78d856" stroke-width="2" d="M1559,-396C1559,-396 1374,-396 1374,-396 1368,-396 1362,-390 1362,-384 1362,-384 1362,-372 1362,-372 1362,-366 1368,-360 1374,-360 1374,-360 1559,-360 1559,-360 1565,-360 1571,-366 1571,-372 1571,-372 1571,-384 1571,-384 1571,-390 1565,-396 1559,-396"/>
<text text-anchor="middle" x="1466.5" y="-381" font-family="sans" font-size="10.00">kneaddata</text>
<text text-anchor="middle" x="1466.5" y="-370" font-family="sans" font-size="10.00">dataset: RBAR_CM1_Run3_T24_S15_L002</text>
</g>
<!-- 35&#45;&gt;34 -->
<g id="edge40" class="edge">
<title>35&#45;&gt;34</title>
<path fill="none" stroke="grey" stroke-width="2" d="M1465.76,-359.7C1465.43,-351.98 1465.03,-342.71 1464.66,-334.11"/>
<polygon fill="grey" stroke="grey" stroke-width="2" points="1468.16,-333.95 1464.23,-324.1 1461.16,-334.25 1468.16,-333.95"/>
</g>
<!-- 36 -->
<g id="node37" class="node">
<title>36</title>
<path fill="none" stroke="#56d8c9" stroke-width="2" d="M1482,-108C1482,-108 1439,-108 1439,-108 1433,-108 1427,-102 1427,-96 1427,-96 1427,-84 1427,-84 1427,-78 1433,-72 1439,-72 1439,-72 1482,-72 1482,-72 1488,-72 1494,-78 1494,-84 1494,-84 1494,-96 1494,-96 1494,-102 1488,-108 1482,-108"/>
<text text-anchor="middle" x="1460.5" y="-87.5" font-family="sans" font-size="10.00">write_to_db</text>
</g>
<!-- 36&#45;&gt;0 -->
<g id="edge8" class="edge">
<title>36&#45;&gt;0</title>
<path fill="none" stroke="grey" stroke-width="2" d="M1426.77,-73.46C1402.41,-62.25 1369.57,-47.13 1344.68,-35.66"/>
<polygon fill="grey" stroke="grey" stroke-width="2" points="1346.11,-32.47 1335.56,-31.46 1343.18,-38.82 1346.11,-32.47"/>
</g>
<!-- 37 -->
<g id="node38" class="node">
<title>37</title>
<path fill="none" stroke="#56d87b" stroke-width="2" d="M1536.5,-180C1536.5,-180 1506.5,-180 1506.5,-180 1500.5,-180 1494.5,-174 1494.5,-168 1494.5,-168 1494.5,-156 1494.5,-156 1494.5,-150 1500.5,-144 1506.5,-144 1506.5,-144 1536.5,-144 1536.5,-144 1542.5,-144 1548.5,-150 1548.5,-156 1548.5,-156 1548.5,-168 1548.5,-168 1548.5,-174 1542.5,-180 1536.5,-180"/>
<text text-anchor="middle" x="1521.5" y="-159.5" font-family="sans" font-size="10.00">regroup</text>
</g>
<!-- 37&#45;&gt;36 -->
<g id="edge41" class="edge">
<title>37&#45;&gt;36</title>
<path fill="none" stroke="grey" stroke-width="2" d="M1506.42,-143.7C1499.11,-135.3 1490.19,-125.07 1482.16,-115.86"/>
<polygon fill="grey" stroke="grey" stroke-width="2" points="1484.61,-113.34 1475.41,-108.1 1479.34,-117.94 1484.61,-113.34"/>
</g>
<!-- 38 -->
<g id="node39" class="node">
<title>38</title>
<path fill="none" stroke="#d8a456" stroke-width="2" d="M1741,-252C1741,-252 1600,-252 1600,-252 1594,-252 1588,-246 1588,-240 1588,-240 1588,-228 1588,-228 1588,-222 1594,-216 1600,-216 1600,-216 1741,-216 1741,-216 1747,-216 1753,-222 1753,-228 1753,-228 1753,-240 1753,-240 1753,-246 1747,-252 1741,-252"/>
<text text-anchor="middle" x="1670.5" y="-237" font-family="sans" font-size="10.00">humannTool</text>
<text text-anchor="middle" x="1670.5" y="-226" font-family="sans" font-size="10.00">name: new_dag_2022&#45;06&#45;26_beng</text>
</g>
<!-- 38&#45;&gt;37 -->
<g id="edge42" class="edge">
<title>38&#45;&gt;37</title>
<path fill="none" stroke="grey" stroke-width="2" d="M1634.05,-215.88C1610.88,-204.99 1581,-190.95 1557.85,-180.07"/>
<polygon fill="grey" stroke="grey" stroke-width="2" points="1559.23,-176.86 1548.69,-175.78 1556.26,-183.2 1559.23,-176.86"/>
</g>
<!-- 39 -->
<g id="node40" class="node">
<title>39</title>
<path fill="none" stroke="#56a2d8" stroke-width="2" d="M1705,-324C1705,-324 1658,-324 1658,-324 1652,-324 1646,-318 1646,-312 1646,-312 1646,-300 1646,-300 1646,-294 1652,-288 1658,-288 1658,-288 1705,-288 1705,-288 1711,-288 1717,-294 1717,-300 1717,-300 1717,-312 1717,-312 1717,-318 1711,-324 1705,-324"/>
<text text-anchor="middle" x="1681.5" y="-303.5" font-family="sans" font-size="10.00">reformat_file</text>
</g>
<!-- 39&#45;&gt;38 -->
<g id="edge43" class="edge">
<title>39&#45;&gt;38</title>
<path fill="none" stroke="grey" stroke-width="2" d="M1678.78,-287.7C1677.57,-279.98 1676.11,-270.71 1674.76,-262.11"/>
<polygon fill="grey" stroke="grey" stroke-width="2" points="1678.2,-261.44 1673.19,-252.1 1671.28,-262.53 1678.2,-261.44"/>
</g>
<!-- 40 -->
<g id="node41" class="node">
<title>40</title>
<path fill="none" stroke="#78d856" stroke-width="2" d="M1786,-396C1786,-396 1601,-396 1601,-396 1595,-396 1589,-390 1589,-384 1589,-384 1589,-372 1589,-372 1589,-366 1595,-360 1601,-360 1601,-360 1786,-360 1786,-360 1792,-360 1798,-366 1798,-372 1798,-372 1798,-384 1798,-384 1798,-390 1792,-396 1786,-396"/>
<text text-anchor="middle" x="1693.5" y="-381" font-family="sans" font-size="10.00">kneaddata</text>
<text text-anchor="middle" x="1693.5" y="-370" font-family="sans" font-size="10.00">dataset: RBAR_CM3_Run2_T48_S20_L002</text>
</g>
<!-- 40&#45;&gt;39 -->
<g id="edge44" class="edge">
<title>40&#45;&gt;39</title>
<path fill="none" stroke="grey" stroke-width="2" d="M1690.53,-359.7C1689.21,-351.98 1687.62,-342.71 1686.15,-334.11"/>
<polygon fill="grey" stroke="grey" stroke-width="2" points="1689.57,-333.37 1684.43,-324.1 1682.67,-334.55 1689.57,-333.37"/>
</g>
<!-- 41 -->
<g id="node42" class="node">
<title>41</title>
<path fill="none" stroke="#56d8c9" stroke-width="2" d="M1571,-108C1571,-108 1528,-108 1528,-108 1522,-108 1516,-102 1516,-96 1516,-96 1516,-84 1516,-84 1516,-78 1522,-72 1528,-72 1528,-72 1571,-72 1571,-72 1577,-72 1583,-78 1583,-84 1583,-84 1583,-96 1583,-96 1583,-102 1577,-108 1571,-108"/>
<text text-anchor="middle" x="1549.5" y="-87.5" font-family="sans" font-size="10.00">write_to_db</text>
</g>
<!-- 41&#45;&gt;0 -->
<g id="edge9" class="edge">
<title>41&#45;&gt;0</title>
<path fill="none" stroke="grey" stroke-width="2" d="M1515.98,-76.5C1511.47,-74.93 1506.88,-73.39 1502.5,-72 1448.42,-54.86 1384.84,-38.13 1345.6,-28.19"/>
<polygon fill="grey" stroke="grey" stroke-width="2" points="1346.24,-24.74 1335.69,-25.69 1344.53,-31.53 1346.24,-24.74"/>
</g>
<!-- 42 -->
<g id="node43" class="node">
<title>42</title>
<path fill="none" stroke="#56d87b" stroke-width="2" d="M1628.5,-180C1628.5,-180 1598.5,-180 1598.5,-180 1592.5,-180 1586.5,-174 1586.5,-168 1586.5,-168 1586.5,-156 1586.5,-156 1586.5,-150 1592.5,-144 1598.5,-144 1598.5,-144 1628.5,-144 1628.5,-144 1634.5,-144 1640.5,-150 1640.5,-156 1640.5,-156 1640.5,-168 1640.5,-168 1640.5,-174 1634.5,-180 1628.5,-180"/>
<text text-anchor="middle" x="1613.5" y="-159.5" font-family="sans" font-size="10.00">regroup</text>
</g>
<!-- 42&#45;&gt;41 -->
<g id="edge45" class="edge">
<title>42&#45;&gt;41</title>
<path fill="none" stroke="grey" stroke-width="2" d="M1597.68,-143.7C1589.93,-135.22 1580.46,-124.86 1571.98,-115.58"/>
<polygon fill="grey" stroke="grey" stroke-width="2" points="1574.47,-113.12 1565.14,-108.1 1569.3,-117.85 1574.47,-113.12"/>
</g>
<!-- 43 -->
<g id="node44" class="node">
<title>43</title>
<path fill="none" stroke="#d8a456" stroke-width="2" d="M1960,-252C1960,-252 1819,-252 1819,-252 1813,-252 1807,-246 1807,-240 1807,-240 1807,-228 1807,-228 1807,-222 1813,-216 1819,-216 1819,-216 1960,-216 1960,-216 1966,-216 1972,-222 1972,-228 1972,-228 1972,-240 1972,-240 1972,-246 1966,-252 1960,-252"/>
<text text-anchor="middle" x="1889.5" y="-237" font-family="sans" font-size="10.00">humannTool</text>
<text text-anchor="middle" x="1889.5" y="-226" font-family="sans" font-size="10.00">name: new_dag_2022&#45;06&#45;26_beng</text>
</g>
<!-- 43&#45;&gt;42 -->
<g id="edge46" class="edge">
<title>43&#45;&gt;42</title>
<path fill="none" stroke="grey" stroke-width="2" d="M1806.87,-216.63C1762.78,-207.22 1707.79,-194.42 1659.5,-180 1656.4,-179.07 1653.21,-178.05 1650.02,-176.97"/>
<polygon fill="grey" stroke="grey" stroke-width="2" points="1651.14,-173.66 1640.55,-173.65 1648.82,-180.26 1651.14,-173.66"/>
</g>
<!-- 44 -->
<g id="node45" class="node">
<title>44</title>
<path fill="none" stroke="#56a2d8" stroke-width="2" d="M1928,-324C1928,-324 1881,-324 1881,-324 1875,-324 1869,-318 1869,-312 1869,-312 1869,-300 1869,-300 1869,-294 1875,-288 1881,-288 1881,-288 1928,-288 1928,-288 1934,-288 1940,-294 1940,-300 1940,-300 1940,-312 1940,-312 1940,-318 1934,-324 1928,-324"/>
<text text-anchor="middle" x="1904.5" y="-303.5" font-family="sans" font-size="10.00">reformat_file</text>
</g>
<!-- 44&#45;&gt;43 -->
<g id="edge47" class="edge">
<title>44&#45;&gt;43</title>
<path fill="none" stroke="grey" stroke-width="2" d="M1900.79,-287.7C1899.14,-279.98 1897.15,-270.71 1895.31,-262.11"/>
<polygon fill="grey" stroke="grey" stroke-width="2" points="1898.68,-261.15 1893.17,-252.1 1891.84,-262.62 1898.68,-261.15"/>
</g>
<!-- 45 -->
<g id="node46" class="node">
<title>45</title>
<path fill="none" stroke="#78d856" stroke-width="2" d="M2013,-396C2013,-396 1828,-396 1828,-396 1822,-396 1816,-390 1816,-384 1816,-384 1816,-372 1816,-372 1816,-366 1822,-360 1828,-360 1828,-360 2013,-360 2013,-360 2019,-360 2025,-366 2025,-372 2025,-372 2025,-384 2025,-384 2025,-390 2019,-396 2013,-396"/>
<text text-anchor="middle" x="1920.5" y="-381" font-family="sans" font-size="10.00">kneaddata</text>
<text text-anchor="middle" x="1920.5" y="-370" font-family="sans" font-size="10.00">dataset: RBAR_CM1_Run1_T48_S12_L002</text>
</g>
<!-- 45&#45;&gt;44 -->
<g id="edge48" class="edge">
<title>45&#45;&gt;44</title>
<path fill="none" stroke="grey" stroke-width="2" d="M1916.54,-359.7C1914.78,-351.98 1912.66,-342.71 1910.7,-334.11"/>
<polygon fill="grey" stroke="grey" stroke-width="2" points="1914.05,-333.07 1908.41,-324.1 1907.23,-334.63 1914.05,-333.07"/>
</g>
<!-- 46 -->
<g id="node47" class="node">
<title>46</title>
<path fill="none" stroke="#56d8c9" stroke-width="2" d="M1658,-108C1658,-108 1615,-108 1615,-108 1609,-108 1603,-102 1603,-96 1603,-96 1603,-84 1603,-84 1603,-78 1609,-72 1615,-72 1615,-72 1658,-72 1658,-72 1664,-72 1670,-78 1670,-84 1670,-84 1670,-96 1670,-96 1670,-102 1664,-108 1658,-108"/>
<text text-anchor="middle" x="1636.5" y="-87.5" font-family="sans" font-size="10.00">write_to_db</text>
</g>
<!-- 46&#45;&gt;0 -->
<g id="edge10" class="edge">
<title>46&#45;&gt;0</title>
<path fill="none" stroke="grey" stroke-width="2" d="M1602.8,-75.54C1599.02,-74.25 1595.2,-73.04 1591.5,-72 1505.09,-47.79 1400.69,-31.47 1346.04,-23.88"/>
<polygon fill="grey" stroke="grey" stroke-width="2" points="1346.17,-20.37 1335.79,-22.48 1345.22,-27.3 1346.17,-20.37"/>
</g>
<!-- 47 -->
<g id="node48" class="node">
<title>47</title>
<path fill="none" stroke="#56d87b" stroke-width="2" d="M1710.5,-180C1710.5,-180 1680.5,-180 1680.5,-180 1674.5,-180 1668.5,-174 1668.5,-168 1668.5,-168 1668.5,-156 1668.5,-156 1668.5,-150 1674.5,-144 1680.5,-144 1680.5,-144 1710.5,-144 1710.5,-144 1716.5,-144 1722.5,-150 1722.5,-156 1722.5,-156 1722.5,-168 1722.5,-168 1722.5,-174 1716.5,-180 1710.5,-180"/>
<text text-anchor="middle" x="1695.5" y="-159.5" font-family="sans" font-size="10.00">regroup</text>
</g>
<!-- 47&#45;&gt;46 -->
<g id="edge49" class="edge">
<title>47&#45;&gt;46</title>
<path fill="none" stroke="grey" stroke-width="2" d="M1680.92,-143.7C1673.84,-135.3 1665.22,-125.07 1657.45,-115.86"/>
<polygon fill="grey" stroke="grey" stroke-width="2" points="1660.04,-113.49 1650.92,-108.1 1654.69,-118.01 1660.04,-113.49"/>
</g>
<!-- 48 -->
<g id="node49" class="node">
<title>48</title>
<path fill="none" stroke="#d8a456" stroke-width="2" d="M2183,-252C2183,-252 2042,-252 2042,-252 2036,-252 2030,-246 2030,-240 2030,-240 2030,-228 2030,-228 2030,-222 2036,-216 2042,-216 2042,-216 2183,-216 2183,-216 2189,-216 2195,-222 2195,-228 2195,-228 2195,-240 2195,-240 2195,-246 2189,-252 2183,-252"/>
<text text-anchor="middle" x="2112.5" y="-237" font-family="sans" font-size="10.00">humannTool</text>
<text text-anchor="middle" x="2112.5" y="-226" font-family="sans" font-size="10.00">name: new_dag_2022&#45;06&#45;26_beng</text>
</g>
<!-- 48&#45;&gt;47 -->
<g id="edge50" class="edge">
<title>48&#45;&gt;47</title>
<path fill="none" stroke="grey" stroke-width="2" d="M2029.85,-221.89C1923.45,-207.51 1750.51,-183.83 1736.5,-180 1735.06,-179.61 1733.6,-179.18 1732.14,-178.71"/>
<polygon fill="grey" stroke="grey" stroke-width="2" points="1733.1,-175.34 1722.51,-175.32 1730.78,-181.95 1733.1,-175.34"/>
</g>
<!-- 49 -->
<g id="node50" class="node">
<title>49</title>
<path fill="none" stroke="#56a2d8" stroke-width="2" d="M2153,-324C2153,-324 2106,-324 2106,-324 2100,-324 2094,-318 2094,-312 2094,-312 2094,-300 2094,-300 2094,-294 2100,-288 2106,-288 2106,-288 2153,-288 2153,-288 2159,-288 2165,-294 2165,-300 2165,-300 2165,-312 2165,-312 2165,-318 2159,-324 2153,-324"/>
<text text-anchor="middle" x="2129.5" y="-303.5" font-family="sans" font-size="10.00">reformat_file</text>
</g>
<!-- 49&#45;&gt;48 -->
<g id="edge51" class="edge">
<title>49&#45;&gt;48</title>
<path fill="none" stroke="grey" stroke-width="2" d="M2125.3,-287.7C2123.4,-279.9 2121.12,-270.51 2119.02,-261.83"/>
<polygon fill="grey" stroke="grey" stroke-width="2" points="2122.42,-261 2116.65,-252.1 2115.61,-262.65 2122.42,-261"/>
</g>
<!-- 50 -->
<g id="node51" class="node">
<title>50</title>
<path fill="none" stroke="#78d856" stroke-width="2" d="M2240,-396C2240,-396 2055,-396 2055,-396 2049,-396 2043,-390 2043,-384 2043,-384 2043,-372 2043,-372 2043,-366 2049,-360 2055,-360 2055,-360 2240,-360 2240,-360 2246,-360 2252,-366 2252,-372 2252,-372 2252,-384 2252,-384 2252,-390 2246,-396 2240,-396"/>
<text text-anchor="middle" x="2147.5" y="-381" font-family="sans" font-size="10.00">kneaddata</text>
<text text-anchor="middle" x="2147.5" y="-370" font-family="sans" font-size="10.00">dataset: RBAR_CM3_Run1_T48_S18_L002</text>
</g>
<!-- 50&#45;&gt;49 -->
<g id="edge52" class="edge">
<title>50&#45;&gt;49</title>
<path fill="none" stroke="grey" stroke-width="2" d="M2143.05,-359.7C2141.05,-351.9 2138.63,-342.51 2136.4,-333.83"/>
<polygon fill="grey" stroke="grey" stroke-width="2" points="2139.78,-332.92 2133.9,-324.1 2133,-334.66 2139.78,-332.92"/>
</g>
<!-- 51 -->
<g id="node52" class="node">
<title>51</title>
<path fill="none" stroke="#56d8c9" stroke-width="2" d="M1744,-108C1744,-108 1701,-108 1701,-108 1695,-108 1689,-102 1689,-96 1689,-96 1689,-84 1689,-84 1689,-78 1695,-72 1701,-72 1701,-72 1744,-72 1744,-72 1750,-72 1756,-78 1756,-84 1756,-84 1756,-96 1756,-96 1756,-102 1750,-108 1744,-108"/>
<text text-anchor="middle" x="1722.5" y="-87.5" font-family="sans" font-size="10.00">write_to_db</text>
</g>
<!-- 51&#45;&gt;0 -->
<g id="edge11" class="edge">
<title>51&#45;&gt;0</title>
<path fill="none" stroke="grey" stroke-width="2" d="M1688.95,-74.87C1685.79,-73.8 1682.6,-72.82 1679.5,-72 1560.11,-40.34 1413.77,-26.49 1346.1,-21.45"/>
<polygon fill="grey" stroke="grey" stroke-width="2" points="1346.16,-17.94 1335.94,-20.71 1345.66,-24.92 1346.16,-17.94"/>
</g>
<!-- 52 -->
<g id="node53" class="node">
<title>52</title>
<path fill="none" stroke="#56d87b" stroke-width="2" d="M1787.5,-180C1787.5,-180 1757.5,-180 1757.5,-180 1751.5,-180 1745.5,-174 1745.5,-168 1745.5,-168 1745.5,-156 1745.5,-156 1745.5,-150 1751.5,-144 1757.5,-144 1757.5,-144 1787.5,-144 1787.5,-144 1793.5,-144 1799.5,-150 1799.5,-156 1799.5,-156 1799.5,-168 1799.5,-168 1799.5,-174 1793.5,-180 1787.5,-180"/>
<text text-anchor="middle" x="1772.5" y="-159.5" font-family="sans" font-size="10.00">regroup</text>
</g>
<!-- 52&#45;&gt;51 -->
<g id="edge53" class="edge">
<title>52&#45;&gt;51</title>
<path fill="none" stroke="grey" stroke-width="2" d="M1760.14,-143.7C1754.27,-135.47 1747.13,-125.48 1740.66,-116.42"/>
<polygon fill="grey" stroke="grey" stroke-width="2" points="1743.38,-114.21 1734.72,-108.1 1737.68,-118.28 1743.38,-114.21"/>
</g>
<!-- 53 -->
<g id="node54" class="node">
<title>53</title>
<path fill="none" stroke="#d8a456" stroke-width="2" d="M2408,-252C2408,-252 2267,-252 2267,-252 2261,-252 2255,-246 2255,-240 2255,-240 2255,-228 2255,-228 2255,-222 2261,-216 2267,-216 2267,-216 2408,-216 2408,-216 2414,-216 2420,-222 2420,-228 2420,-228 2420,-240 2420,-240 2420,-246 2414,-252 2408,-252"/>
<text text-anchor="middle" x="2337.5" y="-237" font-family="sans" font-size="10.00">humannTool</text>
<text text-anchor="middle" x="2337.5" y="-226" font-family="sans" font-size="10.00">name: new_dag_2022&#45;06&#45;26_beng</text>
</g>
<!-- 53&#45;&gt;52 -->
<g id="edge54" class="edge">
<title>53&#45;&gt;52</title>
<path fill="none" stroke="grey" stroke-width="2" d="M2254.9,-221.98C2238.23,-219.88 2220.81,-217.79 2204.5,-216 2030.15,-196.88 1981.39,-223.6 1811.5,-180 1810.78,-179.81 1810.05,-179.62 1809.32,-179.41"/>
<polygon fill="grey" stroke="grey" stroke-width="2" points="1810.4,-176.08 1799.81,-176.2 1808.16,-182.71 1810.4,-176.08"/>
</g>
<!-- 54 -->
<g id="node55" class="node">
<title>54</title>
<path fill="none" stroke="#56a2d8" stroke-width="2" d="M2379,-324C2379,-324 2332,-324 2332,-324 2326,-324 2320,-318 2320,-312 2320,-312 2320,-300 2320,-300 2320,-294 2326,-288 2332,-288 2332,-288 2379,-288 2379,-288 2385,-288 2391,-294 2391,-300 2391,-300 2391,-312 2391,-312 2391,-318 2385,-324 2379,-324"/>
<text text-anchor="middle" x="2355.5" y="-303.5" font-family="sans" font-size="10.00">reformat_file</text>
</g>
<!-- 54&#45;&gt;53 -->
<g id="edge55" class="edge">
<title>54&#45;&gt;53</title>
<path fill="none" stroke="grey" stroke-width="2" d="M2351.05,-287.7C2349.05,-279.9 2346.63,-270.51 2344.4,-261.83"/>
<polygon fill="grey" stroke="grey" stroke-width="2" points="2347.78,-260.92 2341.9,-252.1 2341,-262.66 2347.78,-260.92"/>
</g>
<!-- 55 -->
<g id="node56" class="node">
<title>55</title>
<path fill="none" stroke="#78d856" stroke-width="2" d="M2467,-396C2467,-396 2282,-396 2282,-396 2276,-396 2270,-390 2270,-384 2270,-384 2270,-372 2270,-372 2270,-366 2276,-360 2282,-360 2282,-360 2467,-360 2467,-360 2473,-360 2479,-366 2479,-372 2479,-372 2479,-384 2479,-384 2479,-390 2473,-396 2467,-396"/>
<text text-anchor="middle" x="2374.5" y="-381" font-family="sans" font-size="10.00">kneaddata</text>
<text text-anchor="middle" x="2374.5" y="-370" font-family="sans" font-size="10.00">dataset: RBAR_CM1_Run3_T48_S16_L002</text>
</g>
<!-- 55&#45;&gt;54 -->
<g id="edge56" class="edge">
<title>55&#45;&gt;54</title>
<path fill="none" stroke="grey" stroke-width="2" d="M2369.8,-359.7C2367.69,-351.9 2365.14,-342.51 2362.78,-333.83"/>
<polygon fill="grey" stroke="grey" stroke-width="2" points="2366.14,-332.84 2360.14,-324.1 2359.38,-334.67 2366.14,-332.84"/>
</g>
<!-- 56 -->
<g id="node57" class="node">
<title>56</title>
<path fill="none" stroke="#56d8c9" stroke-width="2" d="M1830,-108C1830,-108 1787,-108 1787,-108 1781,-108 1775,-102 1775,-96 1775,-96 1775,-84 1775,-84 1775,-78 1781,-72 1787,-72 1787,-72 1830,-72 1830,-72 1836,-72 1842,-78 1842,-84 1842,-84 1842,-96 1842,-96 1842,-102 1836,-108 1830,-108"/>
<text text-anchor="middle" x="1808.5" y="-87.5" font-family="sans" font-size="10.00">write_to_db</text>
</g>
<!-- 56&#45;&gt;0 -->
<g id="edge12" class="edge">
<title>56&#45;&gt;0</title>
<path fill="none" stroke="grey" stroke-width="2" d="M1774.97,-74.79C1771.81,-73.73 1768.61,-72.78 1765.5,-72 1613.08,-33.73 1425.02,-22.98 1346.12,-20.05"/>
<polygon fill="grey" stroke="grey" stroke-width="2" points="1345.84,-16.54 1335.73,-19.69 1345.6,-23.54 1345.84,-16.54"/>
</g>
<!-- 57 -->
<g id="node58" class="node">
<title>57</title>
<path fill="none" stroke="#56d87b" stroke-width="2" d="M1862.5,-180C1862.5,-180 1832.5,-180 1832.5,-180 1826.5,-180 1820.5,-174 1820.5,-168 1820.5,-168 1820.5,-156 1820.5,-156 1820.5,-150 1826.5,-144 1832.5,-144 1832.5,-144 1862.5,-144 1862.5,-144 1868.5,-144 1874.5,-150 1874.5,-156 1874.5,-156 1874.5,-168 1874.5,-168 1874.5,-174 1868.5,-180 1862.5,-180"/>
<text text-anchor="middle" x="1847.5" y="-159.5" font-family="sans" font-size="10.00">regroup</text>
</g>
<!-- 57&#45;&gt;56 -->
<g id="edge57" class="edge">
<title>57&#45;&gt;56</title>
<path fill="none" stroke="grey" stroke-width="2" d="M1837.86,-143.7C1833.37,-135.64 1827.94,-125.89 1822.98,-116.98"/>
<polygon fill="grey" stroke="grey" stroke-width="2" points="1825.95,-115.14 1818.03,-108.1 1819.84,-118.54 1825.95,-115.14"/>
</g>
<!-- 58 -->
<g id="node59" class="node">
<title>58</title>
<path fill="none" stroke="#d8a456" stroke-width="2" d="M2634,-252C2634,-252 2493,-252 2493,-252 2487,-252 2481,-246 2481,-240 2481,-240 2481,-228 2481,-228 2481,-222 2487,-216 2493,-216 2493,-216 2634,-216 2634,-216 2640,-216 2646,-222 2646,-228 2646,-228 2646,-240 2646,-240 2646,-246 2640,-252 2634,-252"/>
<text text-anchor="middle" x="2563.5" y="-237" font-family="sans" font-size="10.00">humannTool</text>
<text text-anchor="middle" x="2563.5" y="-226" font-family="sans" font-size="10.00">name: new_dag_2022&#45;06&#45;26_beng</text>
</g>
<!-- 58&#45;&gt;57 -->
<g id="edge58" class="edge">
<title>58&#45;&gt;57</title>
<path fill="none" stroke="grey" stroke-width="2" d="M2480.99,-222.07C2463.98,-219.94 2446.17,-217.82 2429.5,-216 2224.06,-193.62 1977.1,-173.3 1884.74,-165.93"/>
<polygon fill="grey" stroke="grey" stroke-width="2" points="1884.76,-162.42 1874.51,-165.12 1884.2,-169.4 1884.76,-162.42"/>
</g>
<!-- 59 -->
<g id="node60" class="node">
<title>59</title>
<path fill="none" stroke="#56a2d8" stroke-width="2" d="M2606,-324C2606,-324 2559,-324 2559,-324 2553,-324 2547,-318 2547,-312 2547,-312 2547,-300 2547,-300 2547,-294 2553,-288 2559,-288 2559,-288 2606,-288 2606,-288 2612,-288 2618,-294 2618,-300 2618,-300 2618,-312 2618,-312 2618,-318 2612,-324 2606,-324"/>
<text text-anchor="middle" x="2582.5" y="-303.5" font-family="sans" font-size="10.00">reformat_file</text>
</g>
<!-- 59&#45;&gt;58 -->
<g id="edge59" class="edge">
<title>59&#45;&gt;58</title>
<path fill="none" stroke="grey" stroke-width="2" d="M2577.8,-287.7C2575.69,-279.9 2573.14,-270.51 2570.78,-261.83"/>
<polygon fill="grey" stroke="grey" stroke-width="2" points="2574.14,-260.84 2568.14,-252.1 2567.38,-262.67 2574.14,-260.84"/>
</g>
<!-- 60 -->
<g id="node61" class="node">
<title>60</title>
<path fill="none" stroke="#78d856" stroke-width="2" d="M2694,-396C2694,-396 2509,-396 2509,-396 2503,-396 2497,-390 2497,-384 2497,-384 2497,-372 2497,-372 2497,-366 2503,-360 2509,-360 2509,-360 2694,-360 2694,-360 2700,-360 2706,-366 2706,-372 2706,-372 2706,-384 2706,-384 2706,-390 2700,-396 2694,-396"/>
<text text-anchor="middle" x="2601.5" y="-381" font-family="sans" font-size="10.00">kneaddata</text>
<text text-anchor="middle" x="2601.5" y="-370" font-family="sans" font-size="10.00">dataset: RBAR_CM3_Run3_T24_S21_L002</text>
</g>
<!-- 60&#45;&gt;59 -->
<g id="edge60" class="edge">
<title>60&#45;&gt;59</title>
<path fill="none" stroke="grey" stroke-width="2" d="M2596.8,-359.7C2594.69,-351.9 2592.14,-342.51 2589.78,-333.83"/>
<polygon fill="grey" stroke="grey" stroke-width="2" points="2593.14,-332.84 2587.14,-324.1 2586.38,-334.67 2593.14,-332.84"/>
</g>
</g>
</svg>
