<?xml version="1.0" encoding="UTF-8" standalone="no"?>
<!DOCTYPE svg PUBLIC "-//W3C//DTD SVG 1.1//EN"
 "http://www.w3.org/Graphics/SVG/1.1/DTD/svg11.dtd">
<!-- Generated by graphviz version 3.0.0 (20220226.1711)
 -->
<!-- Title: snakemake_dag Pages: 1 -->
<svg width="898pt" height="404pt"
 viewBox="0.00 0.00 898.00 404.00" xmlns="http://www.w3.org/2000/svg" xmlns:xlink="http://www.w3.org/1999/xlink">
<g id="graph0" class="graph" transform="scale(1 1) rotate(0) translate(4 400)">
<title>snakemake_dag</title>
<polygon fill="white" stroke="transparent" points="-4,4 -4,-400 894,-400 894,4 -4,4"/>
<!-- 0 -->
<g id="node1" class="node">
<title>0</title>
<path fill="none" stroke="#56d87b" stroke-width="2" d="M441.5,-36C441.5,-36 411.5,-36 411.5,-36 405.5,-36 399.5,-30 399.5,-24 399.5,-24 399.5,-12 399.5,-12 399.5,-6 405.5,0 411.5,0 411.5,0 441.5,0 441.5,0 447.5,0 453.5,-6 453.5,-12 453.5,-12 453.5,-24 453.5,-24 453.5,-30 447.5,-36 441.5,-36"/>
<text text-anchor="middle" x="426.5" y="-15.5" font-family="sans" font-size="10.00">all</text>
</g>
<!-- 1 -->
<g id="node2" class="node">
<title>1</title>
<path fill="none" stroke="#56a2d8" stroke-width="2" d="M302,-108C302,-108 259,-108 259,-108 253,-108 247,-102 247,-96 247,-96 247,-84 247,-84 247,-78 253,-72 259,-72 259,-72 302,-72 302,-72 308,-72 314,-78 314,-84 314,-84 314,-96 314,-96 314,-102 308,-108 302,-108"/>
<text text-anchor="middle" x="280.5" y="-87.5" font-family="sans" font-size="10.00">write_to_db</text>
</g>
<!-- 1&#45;&gt;0 -->
<g id="edge1" class="edge">
<title>1&#45;&gt;0</title>
<path fill="none" stroke="grey" stroke-width="2" d="M314.36,-72.76C337.02,-61.9 366.81,-47.62 390,-36.5"/>
<polygon fill="grey" stroke="grey" stroke-width="2" points="391.66,-39.58 399.17,-32.1 388.64,-33.27 391.66,-39.58"/>
</g>
<!-- 2 -->
<g id="node3" class="node">
<title>2</title>
<path fill="none" stroke="#d85656" stroke-width="2" d="M258.5,-180C258.5,-180 228.5,-180 228.5,-180 222.5,-180 216.5,-174 216.5,-168 216.5,-168 216.5,-156 216.5,-156 216.5,-150 222.5,-144 228.5,-144 228.5,-144 258.5,-144 258.5,-144 264.5,-144 270.5,-150 270.5,-156 270.5,-156 270.5,-168 270.5,-168 270.5,-174 264.5,-180 258.5,-180"/>
<text text-anchor="middle" x="243.5" y="-159.5" font-family="sans" font-size="10.00">regroup</text>
</g>
<!-- 2&#45;&gt;1 -->
<g id="edge5" class="edge">
<title>2&#45;&gt;1</title>
<path fill="none" stroke="grey" stroke-width="2" d="M252.65,-143.7C256.9,-135.64 262.06,-125.89 266.77,-116.98"/>
<polygon fill="grey" stroke="grey" stroke-width="2" points="269.88,-118.58 271.46,-108.1 263.69,-115.31 269.88,-118.58"/>
</g>
<!-- 3 -->
<g id="node4" class="node">
<title>3</title>
<path fill="none" stroke="#c6d856" stroke-width="2" d="M221.5,-252C221.5,-252 103.5,-252 103.5,-252 97.5,-252 91.5,-246 91.5,-240 91.5,-240 91.5,-228 91.5,-228 91.5,-222 97.5,-216 103.5,-216 103.5,-216 221.5,-216 221.5,-216 227.5,-216 233.5,-222 233.5,-228 233.5,-228 233.5,-240 233.5,-240 233.5,-246 227.5,-252 221.5,-252"/>
<text text-anchor="middle" x="162.5" y="-237" font-family="sans" font-size="10.00">humannTool</text>
<text text-anchor="middle" x="162.5" y="-226" font-family="sans" font-size="10.00">name: svg_2022&#45;06&#45;26_beng</text>
</g>
<!-- 3&#45;&gt;2 -->
<g id="edge6" class="edge">
<title>3&#45;&gt;2</title>
<path fill="none" stroke="grey" stroke-width="2" d="M182.52,-215.7C192.63,-206.97 205.04,-196.24 216.02,-186.75"/>
<polygon fill="grey" stroke="grey" stroke-width="2" points="218.43,-189.29 223.71,-180.1 213.85,-183.99 218.43,-189.29"/>
</g>
<!-- 4 -->
<g id="node5" class="node">
<title>4</title>
<path fill="none" stroke="#78d856" stroke-width="2" d="M153,-324C153,-324 106,-324 106,-324 100,-324 94,-318 94,-312 94,-312 94,-300 94,-300 94,-294 100,-288 106,-288 106,-288 153,-288 153,-288 159,-288 165,-294 165,-300 165,-300 165,-312 165,-312 165,-318 159,-324 153,-324"/>
<text text-anchor="middle" x="129.5" y="-303.5" font-family="sans" font-size="10.00">reformat_file</text>
</g>
<!-- 4&#45;&gt;3 -->
<g id="edge7" class="edge">
<title>4&#45;&gt;3</title>
<path fill="none" stroke="grey" stroke-width="2" d="M137.66,-287.7C141.41,-279.73 145.95,-270.1 150.12,-261.26"/>
<polygon fill="grey" stroke="grey" stroke-width="2" points="153.34,-262.64 154.44,-252.1 147.01,-259.66 153.34,-262.64"/>
</g>
<!-- 5 -->
<g id="node6" class="node">
<title>5</title>
<path fill="none" stroke="#56d8c9" stroke-width="2" d="M197,-396C197,-396 12,-396 12,-396 6,-396 0,-390 0,-384 0,-384 0,-372 0,-372 0,-366 6,-360 12,-360 12,-360 197,-360 197,-360 203,-360 209,-366 209,-372 209,-372 209,-384 209,-384 209,-390 203,-396 197,-396"/>
<text text-anchor="middle" x="104.5" y="-381" font-family="sans" font-size="10.00">kneaddata</text>
<text text-anchor="middle" x="104.5" y="-370" font-family="sans" font-size="10.00">dataset: RBAR_CM1_Run2_T24_S13_L002</text>
</g>
<!-- 5&#45;&gt;4 -->
<g id="edge8" class="edge">
<title>5&#45;&gt;4</title>
<path fill="none" stroke="grey" stroke-width="2" d="M110.68,-359.7C113.5,-351.81 116.89,-342.3 120.02,-333.55"/>
<polygon fill="grey" stroke="grey" stroke-width="2" points="123.32,-334.7 123.39,-324.1 116.73,-332.34 123.32,-334.7"/>
</g>
<!-- 6 -->
<g id="node7" class="node">
<title>6</title>
<path fill="none" stroke="#56a2d8" stroke-width="2" d="M406,-108C406,-108 363,-108 363,-108 357,-108 351,-102 351,-96 351,-96 351,-84 351,-84 351,-78 357,-72 363,-72 363,-72 406,-72 406,-72 412,-72 418,-78 418,-84 418,-84 418,-96 418,-96 418,-102 412,-108 406,-108"/>
<text text-anchor="middle" x="384.5" y="-87.5" font-family="sans" font-size="10.00">write_to_db</text>
</g>
<!-- 6&#45;&gt;0 -->
<g id="edge2" class="edge">
<title>6&#45;&gt;0</title>
<path fill="none" stroke="grey" stroke-width="2" d="M394.88,-71.7C399.76,-63.56 405.69,-53.69 411.08,-44.7"/>
<polygon fill="grey" stroke="grey" stroke-width="2" points="414.09,-46.48 416.24,-36.1 408.09,-42.88 414.09,-46.48"/>
</g>
<!-- 7 -->
<g id="node8" class="node">
<title>7</title>
<path fill="none" stroke="#d85656" stroke-width="2" d="M391.5,-180C391.5,-180 361.5,-180 361.5,-180 355.5,-180 349.5,-174 349.5,-168 349.5,-168 349.5,-156 349.5,-156 349.5,-150 355.5,-144 361.5,-144 361.5,-144 391.5,-144 391.5,-144 397.5,-144 403.5,-150 403.5,-156 403.5,-156 403.5,-168 403.5,-168 403.5,-174 397.5,-180 391.5,-180"/>
<text text-anchor="middle" x="376.5" y="-159.5" font-family="sans" font-size="10.00">regroup</text>
</g>
<!-- 7&#45;&gt;6 -->
<g id="edge9" class="edge">
<title>7&#45;&gt;6</title>
<path fill="none" stroke="grey" stroke-width="2" d="M378.48,-143.7C379.36,-135.98 380.42,-126.71 381.4,-118.11"/>
<polygon fill="grey" stroke="grey" stroke-width="2" points="384.89,-118.44 382.55,-108.1 377.93,-117.64 384.89,-118.44"/>
</g>
<!-- 8 -->
<g id="node9" class="node">
<title>8</title>
<path fill="none" stroke="#c6d856" stroke-width="2" d="M431.5,-252C431.5,-252 313.5,-252 313.5,-252 307.5,-252 301.5,-246 301.5,-240 301.5,-240 301.5,-228 301.5,-228 301.5,-222 307.5,-216 313.5,-216 313.5,-216 431.5,-216 431.5,-216 437.5,-216 443.5,-222 443.5,-228 443.5,-228 443.5,-240 443.5,-240 443.5,-246 437.5,-252 431.5,-252"/>
<text text-anchor="middle" x="372.5" y="-237" font-family="sans" font-size="10.00">humannTool</text>
<text text-anchor="middle" x="372.5" y="-226" font-family="sans" font-size="10.00">name: svg_2022&#45;06&#45;26_beng</text>
</g>
<!-- 8&#45;&gt;7 -->
<g id="edge10" class="edge">
<title>8&#45;&gt;7</title>
<path fill="none" stroke="grey" stroke-width="2" d="M373.49,-215.7C373.93,-207.98 374.46,-198.71 374.95,-190.11"/>
<polygon fill="grey" stroke="grey" stroke-width="2" points="378.45,-190.29 375.52,-180.1 371.46,-189.89 378.45,-190.29"/>
</g>
<!-- 9 -->
<g id="node10" class="node">
<title>9</title>
<path fill="none" stroke="#78d856" stroke-width="2" d="M363,-324C363,-324 316,-324 316,-324 310,-324 304,-318 304,-312 304,-312 304,-300 304,-300 304,-294 310,-288 316,-288 316,-288 363,-288 363,-288 369,-288 375,-294 375,-300 375,-300 375,-312 375,-312 375,-318 369,-324 363,-324"/>
<text text-anchor="middle" x="339.5" y="-303.5" font-family="sans" font-size="10.00">reformat_file</text>
</g>
<!-- 9&#45;&gt;8 -->
<g id="edge11" class="edge">
<title>9&#45;&gt;8</title>
<path fill="none" stroke="grey" stroke-width="2" d="M347.66,-287.7C351.41,-279.73 355.95,-270.1 360.12,-261.26"/>
<polygon fill="grey" stroke="grey" stroke-width="2" points="363.34,-262.64 364.44,-252.1 357.01,-259.66 363.34,-262.64"/>
</g>
<!-- 10 -->
<g id="node11" class="node">
<title>10</title>
<path fill="none" stroke="#56d8c9" stroke-width="2" d="M424,-396C424,-396 239,-396 239,-396 233,-396 227,-390 227,-384 227,-384 227,-372 227,-372 227,-366 233,-360 239,-360 239,-360 424,-360 424,-360 430,-360 436,-366 436,-372 436,-372 436,-384 436,-384 436,-390 430,-396 424,-396"/>
<text text-anchor="middle" x="331.5" y="-381" font-family="sans" font-size="10.00">kneaddata</text>
<text text-anchor="middle" x="331.5" y="-370" font-family="sans" font-size="10.00">dataset: RBAR_CM1_Run1_T24_S11_L002</text>
</g>
<!-- 10&#45;&gt;9 -->
<g id="edge12" class="edge">
<title>10&#45;&gt;9</title>
<path fill="none" stroke="grey" stroke-width="2" d="M333.48,-359.7C334.36,-351.98 335.42,-342.71 336.4,-334.11"/>
<polygon fill="grey" stroke="grey" stroke-width="2" points="339.89,-334.44 337.55,-324.1 332.93,-333.64 339.89,-334.44"/>
</g>
<!-- 11 -->
<g id="node12" class="node">
<title>11</title>
<path fill="none" stroke="#56a2d8" stroke-width="2" d="M522,-108C522,-108 479,-108 479,-108 473,-108 467,-102 467,-96 467,-96 467,-84 467,-84 467,-78 473,-72 479,-72 479,-72 522,-72 522,-72 528,-72 534,-78 534,-84 534,-84 534,-96 534,-96 534,-102 528,-108 522,-108"/>
<text text-anchor="middle" x="500.5" y="-87.5" font-family="sans" font-size="10.00">write_to_db</text>
</g>
<!-- 11&#45;&gt;0 -->
<g id="edge3" class="edge">
<title>11&#45;&gt;0</title>
<path fill="none" stroke="grey" stroke-width="2" d="M482.21,-71.7C473.07,-63.05 461.86,-52.45 451.9,-43.03"/>
<polygon fill="grey" stroke="grey" stroke-width="2" points="454.25,-40.43 444.58,-36.1 449.44,-45.52 454.25,-40.43"/>
</g>
<!-- 12 -->
<g id="node13" class="node">
<title>12</title>
<path fill="none" stroke="#d85656" stroke-width="2" d="M538.5,-180C538.5,-180 508.5,-180 508.5,-180 502.5,-180 496.5,-174 496.5,-168 496.5,-168 496.5,-156 496.5,-156 496.5,-150 502.5,-144 508.5,-144 508.5,-144 538.5,-144 538.5,-144 544.5,-144 550.5,-150 550.5,-156 550.5,-156 550.5,-168 550.5,-168 550.5,-174 544.5,-180 538.5,-180"/>
<text text-anchor="middle" x="523.5" y="-159.5" font-family="sans" font-size="10.00">regroup</text>
</g>
<!-- 12&#45;&gt;11 -->
<g id="edge13" class="edge">
<title>12&#45;&gt;11</title>
<path fill="none" stroke="grey" stroke-width="2" d="M517.81,-143.7C515.25,-135.9 512.17,-126.51 509.32,-117.83"/>
<polygon fill="grey" stroke="grey" stroke-width="2" points="512.57,-116.51 506.12,-108.1 505.92,-118.7 512.57,-116.51"/>
</g>
<!-- 13 -->
<g id="node14" class="node">
<title>13</title>
<path fill="none" stroke="#c6d856" stroke-width="2" d="M608.5,-252C608.5,-252 490.5,-252 490.5,-252 484.5,-252 478.5,-246 478.5,-240 478.5,-240 478.5,-228 478.5,-228 478.5,-222 484.5,-216 490.5,-216 490.5,-216 608.5,-216 608.5,-216 614.5,-216 620.5,-222 620.5,-228 620.5,-228 620.5,-240 620.5,-240 620.5,-246 614.5,-252 608.5,-252"/>
<text text-anchor="middle" x="549.5" y="-237" font-family="sans" font-size="10.00">humannTool</text>
<text text-anchor="middle" x="549.5" y="-226" font-family="sans" font-size="10.00">name: svg_2022&#45;06&#45;26_beng</text>
</g>
<!-- 13&#45;&gt;12 -->
<g id="edge14" class="edge">
<title>13&#45;&gt;12</title>
<path fill="none" stroke="grey" stroke-width="2" d="M543.07,-215.7C540.14,-207.81 536.61,-198.3 533.36,-189.55"/>
<polygon fill="grey" stroke="grey" stroke-width="2" points="536.62,-188.26 529.85,-180.1 530.05,-190.7 536.62,-188.26"/>
</g>
<!-- 14 -->
<g id="node15" class="node">
<title>14</title>
<path fill="none" stroke="#78d856" stroke-width="2" d="M577,-324C577,-324 530,-324 530,-324 524,-324 518,-318 518,-312 518,-312 518,-300 518,-300 518,-294 524,-288 530,-288 530,-288 577,-288 577,-288 583,-288 589,-294 589,-300 589,-300 589,-312 589,-312 589,-318 583,-324 577,-324"/>
<text text-anchor="middle" x="553.5" y="-303.5" font-family="sans" font-size="10.00">reformat_file</text>
</g>
<!-- 14&#45;&gt;13 -->
<g id="edge15" class="edge">
<title>14&#45;&gt;13</title>
<path fill="none" stroke="grey" stroke-width="2" d="M552.51,-287.7C552.07,-279.98 551.54,-270.71 551.05,-262.11"/>
<polygon fill="grey" stroke="grey" stroke-width="2" points="554.54,-261.89 550.48,-252.1 547.55,-262.29 554.54,-261.89"/>
</g>
<!-- 15 -->
<g id="node16" class="node">
<title>15</title>
<path fill="none" stroke="#56d8c9" stroke-width="2" d="M651,-396C651,-396 466,-396 466,-396 460,-396 454,-390 454,-384 454,-384 454,-372 454,-372 454,-366 460,-360 466,-360 466,-360 651,-360 651,-360 657,-360 663,-366 663,-372 663,-372 663,-384 663,-384 663,-390 657,-396 651,-396"/>
<text text-anchor="middle" x="558.5" y="-381" font-family="sans" font-size="10.00">kneaddata</text>
<text text-anchor="middle" x="558.5" y="-370" font-family="sans" font-size="10.00">dataset: RBAR_CM3_Run3_T48_S22_L002</text>
</g>
<!-- 15&#45;&gt;14 -->
<g id="edge16" class="edge">
<title>15&#45;&gt;14</title>
<path fill="none" stroke="grey" stroke-width="2" d="M557.26,-359.7C556.71,-351.98 556.05,-342.71 555.44,-334.11"/>
<polygon fill="grey" stroke="grey" stroke-width="2" points="558.93,-333.83 554.72,-324.1 551.94,-334.33 558.93,-333.83"/>
</g>
<!-- 16 -->
<g id="node17" class="node">
<title>16</title>
<path fill="none" stroke="#56a2d8" stroke-width="2" d="M622,-108C622,-108 579,-108 579,-108 573,-108 567,-102 567,-96 567,-96 567,-84 567,-84 567,-78 573,-72 579,-72 579,-72 622,-72 622,-72 628,-72 634,-78 634,-84 634,-84 634,-96 634,-96 634,-102 628,-108 622,-108"/>
<text text-anchor="middle" x="600.5" y="-87.5" font-family="sans" font-size="10.00">write_to_db</text>
</g>
<!-- 16&#45;&gt;0 -->
<g id="edge4" class="edge">
<title>16&#45;&gt;0</title>
<path fill="none" stroke="grey" stroke-width="2" d="M566.95,-75.5C537.19,-63.53 493.8,-46.07 463.14,-33.74"/>
<polygon fill="grey" stroke="grey" stroke-width="2" points="464.25,-30.41 453.66,-29.93 461.63,-36.91 464.25,-30.41"/>
</g>
<!-- 17 -->
<g id="node18" class="node">
<title>17</title>
<path fill="none" stroke="#d85656" stroke-width="2" d="M624.5,-180C624.5,-180 594.5,-180 594.5,-180 588.5,-180 582.5,-174 582.5,-168 582.5,-168 582.5,-156 582.5,-156 582.5,-150 588.5,-144 594.5,-144 594.5,-144 624.5,-144 624.5,-144 630.5,-144 636.5,-150 636.5,-156 636.5,-156 636.5,-168 636.5,-168 636.5,-174 630.5,-180 624.5,-180"/>
<text text-anchor="middle" x="609.5" y="-159.5" font-family="sans" font-size="10.00">regroup</text>
</g>
<!-- 17&#45;&gt;16 -->
<g id="edge17" class="edge">
<title>17&#45;&gt;16</title>
<path fill="none" stroke="grey" stroke-width="2" d="M607.28,-143.7C606.28,-135.98 605.09,-126.71 603.99,-118.11"/>
<polygon fill="grey" stroke="grey" stroke-width="2" points="607.45,-117.58 602.7,-108.1 600.5,-118.47 607.45,-117.58"/>
</g>
<!-- 18 -->
<g id="node19" class="node">
<title>18</title>
<path fill="none" stroke="#c6d856" stroke-width="2" d="M810.5,-252C810.5,-252 692.5,-252 692.5,-252 686.5,-252 680.5,-246 680.5,-240 680.5,-240 680.5,-228 680.5,-228 680.5,-222 686.5,-216 692.5,-216 692.5,-216 810.5,-216 810.5,-216 816.5,-216 822.5,-222 822.5,-228 822.5,-228 822.5,-240 822.5,-240 822.5,-246 816.5,-252 810.5,-252"/>
<text text-anchor="middle" x="751.5" y="-237" font-family="sans" font-size="10.00">humannTool</text>
<text text-anchor="middle" x="751.5" y="-226" font-family="sans" font-size="10.00">name: svg_2022&#45;06&#45;26_beng</text>
</g>
<!-- 18&#45;&gt;17 -->
<g id="edge18" class="edge">
<title>18&#45;&gt;17</title>
<path fill="none" stroke="grey" stroke-width="2" d="M716.76,-215.88C695.31,-205.3 667.81,-191.74 646.03,-181.01"/>
<polygon fill="grey" stroke="grey" stroke-width="2" points="647.29,-177.73 636.77,-176.44 644.19,-184 647.29,-177.73"/>
</g>
<!-- 19 -->
<g id="node20" class="node">
<title>19</title>
<path fill="none" stroke="#78d856" stroke-width="2" d="M792,-324C792,-324 745,-324 745,-324 739,-324 733,-318 733,-312 733,-312 733,-300 733,-300 733,-294 739,-288 745,-288 745,-288 792,-288 792,-288 798,-288 804,-294 804,-300 804,-300 804,-312 804,-312 804,-318 798,-324 792,-324"/>
<text text-anchor="middle" x="768.5" y="-303.5" font-family="sans" font-size="10.00">reformat_file</text>
</g>
<!-- 19&#45;&gt;18 -->
<g id="edge19" class="edge">
<title>19&#45;&gt;18</title>
<path fill="none" stroke="grey" stroke-width="2" d="M764.3,-287.7C762.4,-279.9 760.12,-270.51 758.02,-261.83"/>
<polygon fill="grey" stroke="grey" stroke-width="2" points="761.42,-261 755.65,-252.1 754.61,-262.65 761.42,-261"/>
</g>
<!-- 20 -->
<g id="node21" class="node">
<title>20</title>
<path fill="none" stroke="#56d8c9" stroke-width="2" d="M878,-396C878,-396 693,-396 693,-396 687,-396 681,-390 681,-384 681,-384 681,-372 681,-372 681,-366 687,-360 693,-360 693,-360 878,-360 878,-360 884,-360 890,-366 890,-372 890,-372 890,-384 890,-384 890,-390 884,-396 878,-396"/>
<text text-anchor="middle" x="785.5" y="-381" font-family="sans" font-size="10.00">kneaddata</text>
<text text-anchor="middle" x="785.5" y="-370" font-family="sans" font-size="10.00">dataset: RBAR_CM1_Run1_T48_S12_L002</text>
</g>
<!-- 20&#45;&gt;19 -->
<g id="edge20" class="edge">
<title>20&#45;&gt;19</title>
<path fill="none" stroke="grey" stroke-width="2" d="M781.3,-359.7C779.4,-351.9 777.12,-342.51 775.02,-333.83"/>
<polygon fill="grey" stroke="grey" stroke-width="2" points="778.42,-333 772.65,-324.1 771.61,-334.65 778.42,-333"/>
</g>
</g>
</svg>
