<?xml version="1.0" encoding="UTF-8" standalone="no"?>
<!DOCTYPE svg PUBLIC "-//W3C//DTD SVG 1.1//EN" "http://www.w3.org/Graphics/SVG/1.1/DTD/svg11.dtd">
<svg xmlns="http://www.w3.org/2000/svg" xmlns:xlink="http://www.w3.org/1999/xlink" version="1.1" width="2354pt" height="260pt" viewBox="0 0 2354 260">
<g enable-background="new">
<g>
<path d="M 0 0 L 2354 0 L 2354 260 L 0 260 Z " fill="#ffffff"/>
<path stroke-width="2" stroke-linecap="butt" stroke-miterlimit="10" stroke-linejoin="miter" fill="none" stroke="#59d957" d="M 1201.5 220 L 1171.5 220 C 1165.5 220 1159.5 226 1159.5 232 L 1159.5 244 C 1159.5 250 1165.5 256 1171.5 256 L 1201.5 256 C 1207.5 256 1213.5 250 1213.5 244 L 1213.5 232 C 1213.5 226 1207.5 220 1201.5 220 "/>
<text xml:space="preserve" transform="matrix(1 0 0 1 0 0)" font-size="9.999756" font-family="Helvetica"><tspan y="240.5" x="1181.5 1186.7499 1188.9999">all</tspan></text>
<path stroke-width="2" stroke-linecap="butt" stroke-miterlimit="10" stroke-linejoin="miter" fill="none" stroke="#57d9d9" d="M 154 148 L 83 148 C 77 148 71 154 71 160 L 71 172 C 71 178 77 184 83 184 L 154 184 C 160 184 166 178 166 172 L 166 160 C 166 154 160 148 154 148 "/>
<text xml:space="preserve" transform="matrix(1 0 0 1 0 0)" font-size="9.999756" font-family="Helvetica"><tspan y="163" x="92 97.24988 102.499759 110.74955 115.99943 121.2393 126.48918 130.97908 136.97893 142.22879">humannTool</tspan><tspan y="174" x="79 84.24988 89.499759 97.74955 102.99943">name:</tspan></text>
<text xml:space="preserve" transform="matrix(1 0 0 1 0 0)" font-size="9.999756" font-family="Unnamed"><tspan y="174" x="105.98936"> </tspan></text>
<text xml:space="preserve" transform="matrix(1 0 0 1 0 0)" font-size="9.999756" font-family="Helvetica"><tspan y="174" x="108.97929 114.229167 119.47904 127.728839 132.9787 138.21857 146.46837 151.71823">name_map</tspan></text>
<path stroke-width="2" stroke-linecap="butt" stroke-miterlimit="10" stroke-linejoin="miter" fill="none" stroke="#c0c0c0" d="M 166.117 170.121 C 346.555 181.949 986.238 223.875 1148.738 234.523 "/>
<path d="M 1149.426 231.062 L 1159.176 235.211 L 1148.969 238.047 Z M 1149.426 231.062 " fill="#c0c0c0"/>
<path stroke-width="2" stroke-linecap="butt" stroke-miterlimit="10" stroke-linejoin="miter" fill="none" stroke="#c0c0c0" d="M 1149.426 231.062 L 1159.176 235.211 L 1148.969 238.047 Z M 1149.426 231.062 "/>
<path stroke-width="2" stroke-linecap="butt" stroke-miterlimit="10" stroke-linejoin="miter" fill="none" stroke="#d95757" d="M 124 76 L 77 76 C 71 76 65 82 65 88 L 65 100 C 65 106 71 112 77 112 L 124 112 C 130 112 136 106 136 100 L 136 88 C 136 82 130 76 124 76 "/>
<text xml:space="preserve" transform="matrix(1 0 0 1 0 0)" font-size="9.999756" font-family="Helvetica"><tspan y="96.5" x="73 75.99992 81.2498 84.23973 89.48961 92.48953 100.73933 105.989208 108.97913">reformat_</tspan></text>
<text xml:space="preserve" transform="matrix(1 0 0 1 0 0)" font-size="9.999756" font-family="Helvetica"><tspan y="96.5" x="114.22901 116.72895">fi</tspan></text>
<text xml:space="preserve" transform="matrix(1 0 0 1 0 0)" font-size="9.999756" font-family="Helvetica"><tspan y="96.5" x="119.47888 121.72883">le</tspan></text>
<path stroke-width="2" stroke-linecap="butt" stroke-miterlimit="10" stroke-linejoin="miter" fill="none" stroke="#c0c0c0" d="M 104.949 112.305 C 106.953 120.102 109.371 129.492 111.602 138.172 "/>
<path d="M 115 137.34 L 114.102 147.895 L 108.223 139.082 Z M 115 137.34 " fill="#c0c0c0"/>
<path stroke-width="2" stroke-linecap="butt" stroke-miterlimit="10" stroke-linejoin="miter" fill="none" stroke="#c0c0c0" d="M 115 137.34 L 114.102 147.895 L 108.223 139.082 Z M 115 137.34 "/>
<path stroke-width="2" stroke-linecap="butt" stroke-miterlimit="10" stroke-linejoin="miter" fill="none" stroke="#d6d957" d="M 171 4 L 16 4 C 10 4 4 10 4 16 L 4 28 C 4 34 10 40 16 40 L 171 40 C 177 40 183 34 183 28 L 183 16 C 183 10 177 4 171 4 "/>
<text xml:space="preserve" transform="matrix(1 0 0 1 0 0)" font-size="9.999756" font-family="Helvetica"><tspan y="19" x="70.5 75.74987 80.99975 86.249629 91.499507 96.73938 101.98926 107.239139 110.229068">kneaddata</tspan><tspan y="30" x="12 17.249873 22.499747 25.489674 30.739546 35.989419 41.23929 44.229215">dataset:</tspan></text>
<text xml:space="preserve" transform="matrix(1 0 0 1 0 0)" font-size="9.999756" font-family="Unnamed"><tspan y="30" x="47.21914"> </tspan></text>
<text xml:space="preserve" transform="matrix(1 0 0 1 0 0)" font-size="9.999756" font-family="Helvetica"><tspan y="30" x="50.209066 57.708887 64.44872 71.18856 78.68838 81.6883 89.18812 97.43791 102.68779 105.68771 113.177539 118.427417 123.67729 128.92716 131.9271 137.91695 143.16681 148.41667 153.66654 158.9164 164.16626 169.40613">RBAR-CM3-Run2-T24_L002</tspan></text>
<path stroke-width="2" stroke-linecap="butt" stroke-miterlimit="10" stroke-linejoin="miter" fill="none" stroke="#c0c0c0" d="M 95.23 40.305 C 96 48.016 96.93 57.289 97.789 65.887 "/>
<path d="M 101.277 65.598 L 98.789 75.895 L 94.312 66.293 Z M 101.277 65.598 " fill="#c0c0c0"/>
<path stroke-width="2" stroke-linecap="butt" stroke-miterlimit="10" stroke-linejoin="miter" fill="none" stroke="#c0c0c0" d="M 101.277 65.598 L 98.789 75.895 L 94.312 66.293 Z M 101.277 65.598 "/>
<path stroke-width="2" stroke-linecap="butt" stroke-miterlimit="10" stroke-linejoin="miter" fill="none" stroke="#57d9d9" d="M 498 148 L 427 148 C 421 148 415 154 415 160 L 415 172 C 415 178 421 184 427 184 L 498 184 C 504 184 510 178 510 172 L 510 160 C 510 154 504 148 498 148 "/>
<text xml:space="preserve" transform="matrix(1 0 0 1 0 0)" font-size="9.999756" font-family="Helvetica"><tspan y="163" x="436 441.24989 446.49977 454.74958 459.99946 465.23933 470.4892 474.9791 480.97898 486.22886">humannTool</tspan><tspan y="174" x="423 428.24989 433.49977 441.74958 446.99946">name:</tspan></text>
<text xml:space="preserve" transform="matrix(1 0 0 1 0 0)" font-size="9.999756" font-family="Unnamed"><tspan y="174" x="449.98939"> </tspan></text>
<text xml:space="preserve" transform="matrix(1 0 0 1 0 0)" font-size="9.999756" font-family="Helvetica"><tspan y="174" x="452.9793 458.2292 463.47908 471.72889 476.97877 482.21864 490.46846 495.71833">name_map</tspan></text>
<path stroke-width="2" stroke-linecap="butt" stroke-miterlimit="10" stroke-linejoin="miter" fill="none" stroke="#c0c0c0" d="M 510.039 171.773 C 544.348 175.203 591.781 179.926 633.5 184 C 827.668 202.957 1060.25 225.047 1149.312 233.48 "/>
<path d="M 1149.824 230.016 L 1159.453 234.441 L 1149.168 236.984 Z M 1149.824 230.016 " fill="#c0c0c0"/>
<path stroke-width="2" stroke-linecap="butt" stroke-miterlimit="10" stroke-linejoin="miter" fill="none" stroke="#c0c0c0" d="M 1149.824 230.016 L 1159.453 234.441 L 1149.168 236.984 Z M 1149.824 230.016 "/>
<path stroke-width="2" stroke-linecap="butt" stroke-miterlimit="10" stroke-linejoin="miter" fill="none" stroke="#d95757" d="M 368 76 L 321 76 C 315 76 309 82 309 88 L 309 100 C 309 106 315 112 321 112 L 368 112 C 374 112 380 106 380 100 L 380 88 C 380 82 374 76 368 76 "/>
<text xml:space="preserve" transform="matrix(1 0 0 1 0 0)" font-size="9.999756" font-family="Helvetica"><tspan y="96.5" x="317 319.99995 325.24983 328.23976 333.48963 336.48957 344.73939 349.98927 352.9792">reformat_</tspan></text>
<text xml:space="preserve" transform="matrix(1 0 0 1 0 0)" font-size="9.999756" font-family="Helvetica"><tspan y="96.5" x="358.22908 360.729">fi</tspan></text>
<text xml:space="preserve" transform="matrix(1 0 0 1 0 0)" font-size="9.999756" font-family="Helvetica"><tspan y="96.5" x="363.47895 365.72889">le</tspan></text>
<path stroke-width="2" stroke-linecap="butt" stroke-miterlimit="10" stroke-linejoin="miter" fill="none" stroke="#c0c0c0" d="M 373.367 112.125 C 388.793 121.277 407.98 132.66 424.598 142.516 "/>
<path d="M 426.707 139.699 L 433.523 147.809 L 423.137 145.719 Z M 426.707 139.699 " fill="#c0c0c0"/>
<path stroke-width="2" stroke-linecap="butt" stroke-miterlimit="10" stroke-linejoin="miter" fill="none" stroke="#c0c0c0" d="M 426.707 139.699 L 433.523 147.809 L 423.137 145.719 Z M 426.707 139.699 "/>
<path stroke-width="2" stroke-linecap="butt" stroke-miterlimit="10" stroke-linejoin="miter" fill="none" stroke="#d6d957" d="M 368 4 L 213 4 C 207 4 201 10 201 16 L 201 28 C 201 34 207 40 213 40 L 368 40 C 374 40 380 34 380 28 L 380 16 C 380 10 374 4 368 4 "/>
<text xml:space="preserve" transform="matrix(1 0 0 1 0 0)" font-size="9.999756" font-family="Helvetica"><tspan y="19" x="267.5 272.74989 277.99977 283.24964 288.4995 293.73939 298.98927 304.23915 307.22908">kneaddata</tspan><tspan y="30" x="209 214.24987 219.49973 222.48966 227.73952 232.9894 238.23926 241.22919">dataset:</tspan></text>
<text xml:space="preserve" transform="matrix(1 0 0 1 0 0)" font-size="9.999756" font-family="Unnamed"><tspan y="30" x="244.21912"> </tspan></text>
<text xml:space="preserve" transform="matrix(1 0 0 1 0 0)" font-size="9.999756" font-family="Helvetica"><tspan y="30" x="247.20905 254.70886 261.4487 268.18855 275.68836 278.6883 286.1881 294.43794 299.6878 302.68775 310.17756 315.42744 320.6773 325.9272 328.92713 334.917 340.16688 345.41676 350.66664 355.9165 361.16639 366.40626">RBAR-CM3-Run3-T24_L002</tspan></text>
<path stroke-width="2" stroke-linecap="butt" stroke-miterlimit="10" stroke-linejoin="miter" fill="none" stroke="#c0c0c0" d="M 303.848 40.305 C 310.258 48.609 318.059 58.723 325.105 67.859 "/>
<path d="M 327.969 65.84 L 331.305 75.895 L 322.426 70.117 Z M 327.969 65.84 " fill="#c0c0c0"/>
<path stroke-width="2" stroke-linecap="butt" stroke-miterlimit="10" stroke-linejoin="miter" fill="none" stroke="#c0c0c0" d="M 327.969 65.84 L 331.305 75.895 L 322.426 70.117 Z M 327.969 65.84 "/>
<path stroke-width="2" stroke-linecap="butt" stroke-miterlimit="10" stroke-linejoin="miter" fill="none" stroke="#57d9d9" d="M 726 148 L 655 148 C 649 148 643 154 643 160 L 643 172 C 643 178 649 184 655 184 L 726 184 C 732 184 738 178 738 172 L 738 160 C 738 154 732 148 726 148 "/>
<text xml:space="preserve" transform="matrix(1 0 0 1 0 0)" font-size="9.999756" font-family="Helvetica"><tspan y="163" x="664 669.2499 674.49978 682.7495 687.9994 693.23928 698.48916 702.979 708.9789 714.22879">humannTool</tspan><tspan y="174" x="651 656.2499 661.49978 669.7495 674.9994">name:</tspan></text>
<text xml:space="preserve" transform="matrix(1 0 0 1 0 0)" font-size="9.999756" font-family="Unnamed"><tspan y="174" x="677.9893"> </tspan></text>
<text xml:space="preserve" transform="matrix(1 0 0 1 0 0)" font-size="9.999756" font-family="Helvetica"><tspan y="174" x="680.97927 686.2291 691.479 699.72879 704.97866 710.2185 718.46829 723.71817">name_map</tspan></text>
<path stroke-width="2" stroke-linecap="butt" stroke-miterlimit="10" stroke-linejoin="miter" fill="none" stroke="#c0c0c0" d="M 738.184 174.223 C 758.602 177.285 782.715 180.863 804.5 184 C 930.629 202.152 1080.348 222.609 1148.871 231.91 "/>
<path d="M 1149.719 228.492 L 1159.156 233.305 L 1148.777 235.43 Z M 1149.719 228.492 " fill="#c0c0c0"/>
<path stroke-width="2" stroke-linecap="butt" stroke-miterlimit="10" stroke-linejoin="miter" fill="none" stroke="#c0c0c0" d="M 1149.719 228.492 L 1159.156 233.305 L 1148.777 235.43 Z M 1149.719 228.492 "/>
<path stroke-width="2" stroke-linecap="butt" stroke-miterlimit="10" stroke-linejoin="miter" fill="none" stroke="#d95757" d="M 565 76 L 518 76 C 512 76 506 82 506 88 L 506 100 C 506 106 512 112 518 112 L 565 112 C 571 112 577 106 577 100 L 577 88 C 577 82 571 76 565 76 "/>
<text xml:space="preserve" transform="matrix(1 0 0 1 0 0)" font-size="9.999756" font-family="Helvetica"><tspan y="96.5" x="514 516.9999 522.24978 525.2397 530.48959 533.48947 541.7392 546.9891 549.979">reformat_</tspan></text>
<text xml:space="preserve" transform="matrix(1 0 0 1 0 0)" font-size="9.999756" font-family="Helvetica"><tspan y="96.5" x="555.2289 557.7288">fi</tspan></text>
<text xml:space="preserve" transform="matrix(1 0 0 1 0 0)" font-size="9.999756" font-family="Helvetica"><tspan y="96.5" x="560.47879 562.72879">le</tspan></text>
<path stroke-width="2" stroke-linecap="butt" stroke-miterlimit="10" stroke-linejoin="miter" fill="none" stroke="#c0c0c0" d="M 577.188 111.766 C 597.527 121.324 623.223 133.395 645 143.625 "/>
<path d="M 646.504 140.465 L 654.066 147.883 L 643.527 146.801 Z M 646.504 140.465 " fill="#c0c0c0"/>
<path stroke-width="2" stroke-linecap="butt" stroke-miterlimit="10" stroke-linejoin="miter" fill="none" stroke="#c0c0c0" d="M 646.504 140.465 L 654.066 147.883 L 643.527 146.801 Z M 646.504 140.465 "/>
<path stroke-width="2" stroke-linecap="butt" stroke-miterlimit="10" stroke-linejoin="miter" fill="none" stroke="#d6d957" d="M 565 4 L 410 4 C 404 4 398 10 398 16 L 398 28 C 398 34 404 40 410 40 L 565 40 C 571 40 577 34 577 28 L 577 16 C 577 10 571 4 565 4 "/>
<text xml:space="preserve" transform="matrix(1 0 0 1 0 0)" font-size="9.999756" font-family="Helvetica"><tspan y="19" x="464.5 469.74989 474.99977 480.24964 485.4995 490.73939 495.98927 501.23915 504.22908">kneaddata</tspan><tspan y="30" x="406 411.24989 416.49977 419.4897 424.73957 429.98945 435.23933 438.22926">dataset:</tspan></text>
<text xml:space="preserve" transform="matrix(1 0 0 1 0 0)" font-size="9.999756" font-family="Unnamed"><tspan y="30" x="441.21919"> </tspan></text>
<text xml:space="preserve" transform="matrix(1 0 0 1 0 0)" font-size="9.999756" font-family="Helvetica"><tspan y="30" x="444.2091 451.70893 458.44877 465.1886 472.68843 475.68836 483.18818 491.438 496.68788 499.6878 507.1776 512.4275 517.67739 522.92727 525.9271 531.917 537.1669 542.41677 547.6666 552.9165 558.1664 563.40628">RBAR-CM3-Run3-T48_L002</tspan></text>
<path stroke-width="2" stroke-linecap="butt" stroke-miterlimit="10" stroke-linejoin="miter" fill="none" stroke="#c0c0c0" d="M 500.848 40.305 C 507.258 48.609 515.059 58.723 522.105 67.859 "/>
<path d="M 524.969 65.84 L 528.305 75.895 L 519.426 70.117 Z M 524.969 65.84 " fill="#c0c0c0"/>
<path stroke-width="2" stroke-linecap="butt" stroke-miterlimit="10" stroke-linejoin="miter" fill="none" stroke="#c0c0c0" d="M 524.969 65.84 L 528.305 75.895 L 519.426 70.117 Z M 524.969 65.84 "/>
<path stroke-width="2" stroke-linecap="butt" stroke-miterlimit="10" stroke-linejoin="miter" fill="none" stroke="#57d9d9" d="M 897 148 L 826 148 C 820 148 814 154 814 160 L 814 172 C 814 178 820 184 826 184 L 897 184 C 903 184 909 178 909 172 L 909 160 C 909 154 903 148 897 148 "/>
<text xml:space="preserve" transform="matrix(1 0 0 1 0 0)" font-size="9.999756" font-family="Helvetica"><tspan y="163" x="835 840.2499 845.49978 853.7495 858.9994 864.23928 869.48916 873.979 879.9789 885.22879">humannTool</tspan><tspan y="174" x="822 827.2499 832.49978 840.7495 845.9994">name:</tspan></text>
<text xml:space="preserve" transform="matrix(1 0 0 1 0 0)" font-size="9.999756" font-family="Unnamed"><tspan y="174" x="848.9893"> </tspan></text>
<text xml:space="preserve" transform="matrix(1 0 0 1 0 0)" font-size="9.999756" font-family="Helvetica"><tspan y="174" x="851.97927 857.2291 862.479 870.72879 875.97866 881.2185 889.46829 894.71817">name_map</tspan></text>
<path stroke-width="2" stroke-linecap="butt" stroke-miterlimit="10" stroke-linejoin="miter" fill="none" stroke="#c0c0c0" d="M 909.105 177.254 C 974.305 191.297 1090.027 216.223 1149.281 228.984 "/>
<path d="M 1150.281 225.617 L 1159.32 231.145 L 1148.805 232.461 Z M 1150.281 225.617 " fill="#c0c0c0"/>
<path stroke-width="2" stroke-linecap="butt" stroke-miterlimit="10" stroke-linejoin="miter" fill="none" stroke="#c0c0c0" d="M 1150.281 225.617 L 1159.32 231.145 L 1148.805 232.461 Z M 1150.281 225.617 "/>
<path stroke-width="2" stroke-linecap="butt" stroke-miterlimit="10" stroke-linejoin="miter" fill="none" stroke="#d95757" d="M 762 76 L 715 76 C 709 76 703 82 703 88 L 703 100 C 703 106 709 112 715 112 L 762 112 C 768 112 774 106 774 100 L 774 88 C 774 82 768 76 762 76 "/>
<text xml:space="preserve" transform="matrix(1 0 0 1 0 0)" font-size="9.999756" font-family="Helvetica"><tspan y="96.5" x="711 713.9999 719.24978 722.2397 727.48959 730.48947 738.7392 743.9891 746.979">reformat_</tspan></text>
<text xml:space="preserve" transform="matrix(1 0 0 1 0 0)" font-size="9.999756" font-family="Helvetica"><tspan y="96.5" x="752.2289 754.7288">fi</tspan></text>
<text xml:space="preserve" transform="matrix(1 0 0 1 0 0)" font-size="9.999756" font-family="Helvetica"><tspan y="96.5" x="757.47879 759.72879">le</tspan></text>
<path stroke-width="2" stroke-linecap="butt" stroke-miterlimit="10" stroke-linejoin="miter" fill="none" stroke="#c0c0c0" d="M 768.59 112.125 C 784.82 121.359 805.043 132.871 822.473 142.789 "/>
<path d="M 824.336 139.82 L 831.297 147.809 L 820.871 145.906 Z M 824.336 139.82 " fill="#c0c0c0"/>
<path stroke-width="2" stroke-linecap="butt" stroke-miterlimit="10" stroke-linejoin="miter" fill="none" stroke="#c0c0c0" d="M 824.336 139.82 L 831.297 147.809 L 820.871 145.906 Z M 824.336 139.82 "/>
<path stroke-width="2" stroke-linecap="butt" stroke-miterlimit="10" stroke-linejoin="miter" fill="none" stroke="#d6d957" d="M 762 4 L 607 4 C 601 4 595 10 595 16 L 595 28 C 595 34 601 40 607 40 L 762 40 C 768 40 774 34 774 28 L 774 16 C 774 10 768 4 762 4 "/>
<text xml:space="preserve" transform="matrix(1 0 0 1 0 0)" font-size="9.999756" font-family="Helvetica"><tspan y="19" x="661.5 666.7499 671.99978 677.24966 682.4995 687.7394 692.98928 698.23916 701.22909">kneaddata</tspan><tspan y="30" x="603 608.2499 613.49978 616.4897 621.73959 626.98947 632.2393 635.22927">dataset:</tspan></text>
<text xml:space="preserve" transform="matrix(1 0 0 1 0 0)" font-size="9.999756" font-family="Unnamed"><tspan y="30" x="638.2192"> </tspan></text>
<text xml:space="preserve" transform="matrix(1 0 0 1 0 0)" font-size="9.999756" font-family="Helvetica"><tspan y="30" x="641.2091 648.7089 655.4488 662.18869 669.6885 672.68838 680.1882 688.4379 693.6878 696.6877 704.17758 709.4274 714.6773 719.9272 722.92709 728.91696 734.1668 739.4167 744.66659 749.91647 755.1663 760.4062">RBAR-CM3-Run2-T48_L002</tspan></text>
<path stroke-width="2" stroke-linecap="butt" stroke-miterlimit="10" stroke-linejoin="miter" fill="none" stroke="#c0c0c0" d="M 697.848 40.305 C 704.258 48.609 712.059 58.723 719.105 67.859 "/>
<path d="M 721.969 65.84 L 725.305 75.895 L 716.426 70.117 Z M 721.969 65.84 " fill="#c0c0c0"/>
<path stroke-width="2" stroke-linecap="butt" stroke-miterlimit="10" stroke-linejoin="miter" fill="none" stroke="#c0c0c0" d="M 721.969 65.84 L 725.305 75.895 L 716.426 70.117 Z M 721.969 65.84 "/>
<path stroke-width="2" stroke-linecap="butt" stroke-miterlimit="10" stroke-linejoin="miter" fill="none" stroke="#57d9d9" d="M 1039 148 L 968 148 C 962 148 956 154 956 160 L 956 172 C 956 178 962 184 968 184 L 1039 184 C 1045 184 1051 178 1051 172 L 1051 160 C 1051 154 1045 148 1039 148 "/>
<text xml:space="preserve" transform="matrix(1 0 0 1 0 0)" font-size="9.999756" font-family="Helvetica"><tspan y="163" x="977 982.2499 987.49978 995.7495 1000.9994 1006.23928 1011.48916 1015.979 1021.9789 1027.2288">humannTool</tspan><tspan y="174" x="964 969.2499 974.49978 982.7495 987.9994">name:</tspan></text>
<text xml:space="preserve" transform="matrix(1 0 0 1 0 0)" font-size="9.999756" font-family="Unnamed"><tspan y="174" x="990.9893"> </tspan></text>
<text xml:space="preserve" transform="matrix(1 0 0 1 0 0)" font-size="9.999756" font-family="Helvetica"><tspan y="174" x="993.97927 999.2291 1004.479 1012.72879 1017.97866 1023.2185 1031.4684 1036.7183">name_map</tspan></text>
<path stroke-width="2" stroke-linecap="butt" stroke-miterlimit="10" stroke-linejoin="miter" fill="none" stroke="#c0c0c0" d="M 1048.266 184.125 C 1079.543 196.086 1120.781 211.859 1150.051 223.059 "/>
<path d="M 1151.398 219.824 L 1159.488 226.668 L 1148.898 226.363 Z M 1151.398 219.824 " fill="#c0c0c0"/>
<path stroke-width="2" stroke-linecap="butt" stroke-miterlimit="10" stroke-linejoin="miter" fill="none" stroke="#c0c0c0" d="M 1151.398 219.824 L 1159.488 226.668 L 1148.898 226.363 Z M 1151.398 219.824 "/>
<path stroke-width="2" stroke-linecap="butt" stroke-miterlimit="10" stroke-linejoin="miter" fill="none" stroke="#d95757" d="M 959 76 L 912 76 C 906 76 900 82 900 88 L 900 100 C 900 106 906 112 912 112 L 959 112 C 965 112 971 106 971 100 L 971 88 C 971 82 965 76 959 76 "/>
<text xml:space="preserve" transform="matrix(1 0 0 1 0 0)" font-size="9.999756" font-family="Helvetica"><tspan y="96.5" x="908 910.9999 916.24978 919.2397 924.48959 927.48947 935.7392 940.9891 943.979">reformat_</tspan></text>
<text xml:space="preserve" transform="matrix(1 0 0 1 0 0)" font-size="9.999756" font-family="Helvetica"><tspan y="96.5" x="949.2289 951.7288">fi</tspan></text>
<text xml:space="preserve" transform="matrix(1 0 0 1 0 0)" font-size="9.999756" font-family="Helvetica"><tspan y="96.5" x="954.47879 956.72879">le</tspan></text>
<path stroke-width="2" stroke-linecap="butt" stroke-miterlimit="10" stroke-linejoin="miter" fill="none" stroke="#c0c0c0" d="M 952.309 112.305 C 960.625 120.863 970.805 131.344 979.891 140.695 "/>
<path d="M 982.426 138.285 L 986.883 147.895 L 977.406 143.16 Z M 982.426 138.285 " fill="#c0c0c0"/>
<path stroke-width="2" stroke-linecap="butt" stroke-miterlimit="10" stroke-linejoin="miter" fill="none" stroke="#c0c0c0" d="M 982.426 138.285 L 986.883 147.895 L 977.406 143.16 Z M 982.426 138.285 "/>
<path stroke-width="2" stroke-linecap="butt" stroke-miterlimit="10" stroke-linejoin="miter" fill="none" stroke="#d6d957" d="M 959 4 L 804 4 C 798 4 792 10 792 16 L 792 28 C 792 34 798 40 804 40 L 959 40 C 965 40 971 34 971 28 L 971 16 C 971 10 965 4 959 4 "/>
<text xml:space="preserve" transform="matrix(1 0 0 1 0 0)" font-size="9.999756" font-family="Helvetica"><tspan y="19" x="858.5 863.7499 868.99978 874.24966 879.4995 884.7394 889.98928 895.23916 898.22909">kneaddata</tspan><tspan y="30" x="800 805.2499 810.49978 813.4897 818.73959 823.98947 829.2393 832.22927">dataset:</tspan></text>
<text xml:space="preserve" transform="matrix(1 0 0 1 0 0)" font-size="9.999756" font-family="Unnamed"><tspan y="30" x="835.2192"> </tspan></text>
<text xml:space="preserve" transform="matrix(1 0 0 1 0 0)" font-size="9.999756" font-family="Helvetica"><tspan y="30" x="838.2091 845.7089 852.4488 859.18869 866.6885 869.68838 877.1882 885.4379 890.6878 893.6877 901.17758 906.4274 911.6773 916.9272 919.92709 925.91696 931.1668 936.4167 941.66659 946.91647 952.1663 957.4062">RBAR-CM1-Run1-T48_L002</tspan></text>
<path stroke-width="2" stroke-linecap="butt" stroke-miterlimit="10" stroke-linejoin="miter" fill="none" stroke="#c0c0c0" d="M 894.848 40.305 C 901.258 48.609 909.059 58.723 916.105 67.859 "/>
<path d="M 918.969 65.84 L 922.305 75.895 L 913.426 70.117 Z M 918.969 65.84 " fill="#c0c0c0"/>
<path stroke-width="2" stroke-linecap="butt" stroke-miterlimit="10" stroke-linejoin="miter" fill="none" stroke="#c0c0c0" d="M 918.969 65.84 L 922.305 75.895 L 913.426 70.117 Z M 918.969 65.84 "/>
<path stroke-width="2" stroke-linecap="butt" stroke-miterlimit="10" stroke-linejoin="miter" fill="none" stroke="#57d9d9" d="M 1166 148 L 1095 148 C 1089 148 1083 154 1083 160 L 1083 172 C 1083 178 1089 184 1095 184 L 1166 184 C 1172 184 1178 178 1178 172 L 1178 160 C 1178 154 1172 148 1166 148 "/>
<text xml:space="preserve" transform="matrix(1 0 0 1 0 0)" font-size="9.999756" font-family="Helvetica"><tspan y="163" x="1104 1109.2499 1114.4998 1122.7496 1127.9995 1133.2394 1138.4893 1142.9791 1148.9789 1154.2288">humannTool</tspan><tspan y="174" x="1091 1096.2499 1101.4998 1109.7496 1114.9995">name:</tspan></text>
<text xml:space="preserve" transform="matrix(1 0 0 1 0 0)" font-size="9.999756" font-family="Unnamed"><tspan y="174" x="1117.9894"> </tspan></text>
<text xml:space="preserve" transform="matrix(1 0 0 1 0 0)" font-size="9.999756" font-family="Helvetica"><tspan y="174" x="1120.9793 1126.2291 1131.479 1139.7289 1144.9788 1150.2186 1158.4685 1163.7184">name_map</tspan></text>
<path stroke-width="2" stroke-linecap="butt" stroke-miterlimit="10" stroke-linejoin="miter" fill="none" stroke="#c0c0c0" d="M 1144.344 184.305 C 1150.988 192.609 1159.078 202.723 1166.387 211.859 "/>
<path d="M 1169.301 209.902 L 1172.816 219.895 L 1163.836 214.273 Z M 1169.301 209.902 " fill="#c0c0c0"/>
<path stroke-width="2" stroke-linecap="butt" stroke-miterlimit="10" stroke-linejoin="miter" fill="none" stroke="#c0c0c0" d="M 1169.301 209.902 L 1172.816 219.895 L 1163.836 214.273 Z M 1169.301 209.902 "/>
<path stroke-width="2" stroke-linecap="butt" stroke-miterlimit="10" stroke-linejoin="miter" fill="none" stroke="#d95757" d="M 1112 76 L 1065 76 C 1059 76 1053 82 1053 88 L 1053 100 C 1053 106 1059 112 1065 112 L 1112 112 C 1118 112 1124 106 1124 100 L 1124 88 C 1124 82 1118 76 1112 76 "/>
<text xml:space="preserve" transform="matrix(1 0 0 1 0 0)" font-size="9.999756" font-family="Helvetica"><tspan y="96.5" x="1061 1064 1069.2499 1072.2398 1077.4896 1080.4896 1088.7395 1093.9894 1096.9793">reformat_</tspan></text>
<text xml:space="preserve" transform="matrix(1 0 0 1 0 0)" font-size="9.999756" font-family="Helvetica"><tspan y="96.5" x="1102.2291 1104.729">fi</tspan></text>
<text xml:space="preserve" transform="matrix(1 0 0 1 0 0)" font-size="9.999756" font-family="Helvetica"><tspan y="96.5" x="1107.479 1109.729">le</tspan></text>
<path stroke-width="2" stroke-linecap="butt" stroke-miterlimit="10" stroke-linejoin="miter" fill="none" stroke="#c0c0c0" d="M 1098.883 112.305 C 1103.766 120.441 1109.688 130.312 1115.078 139.297 "/>
<path d="M 1118.094 137.52 L 1120.238 147.895 L 1112.09 141.121 Z M 1118.094 137.52 " fill="#c0c0c0"/>
<path stroke-width="2" stroke-linecap="butt" stroke-miterlimit="10" stroke-linejoin="miter" fill="none" stroke="#c0c0c0" d="M 1118.094 137.52 L 1120.238 147.895 L 1112.09 141.121 Z M 1118.094 137.52 "/>
<path stroke-width="2" stroke-linecap="butt" stroke-miterlimit="10" stroke-linejoin="miter" fill="none" stroke="#d6d957" d="M 1156 4 L 1001 4 C 995 4 989 10 989 16 L 989 28 C 989 34 995 40 1001 40 L 1156 40 C 1162 40 1168 34 1168 28 L 1168 16 C 1168 10 1162 4 1156 4 "/>
<text xml:space="preserve" transform="matrix(1 0 0 1 0 0)" font-size="9.999756" font-family="Helvetica"><tspan y="19" x="1055.5 1060.7499 1065.9998 1071.2496 1076.4995 1081.7394 1086.9893 1092.2391 1095.229">kneaddata</tspan><tspan y="30" x="997 1002.2499 1007.49978 1010.4897 1015.73959 1020.98947 1026.2394 1029.2293">dataset:</tspan></text>
<text xml:space="preserve" transform="matrix(1 0 0 1 0 0)" font-size="9.999756" font-family="Unnamed"><tspan y="30" x="1032.2191"> </tspan></text>
<text xml:space="preserve" transform="matrix(1 0 0 1 0 0)" font-size="9.999756" font-family="Helvetica"><tspan y="30" x="1035.209 1042.7089 1049.4486 1056.1884 1063.6882 1066.6882 1074.1881 1082.438 1087.6879 1090.6879 1098.1777 1103.4276 1108.6775 1113.9274 1116.9274 1122.9172 1128.1671 1133.417 1138.6669 1143.9168 1149.1666 1154.4065">RBAR-CM1-Run1-T24_L002</tspan></text>
<path stroke-width="2" stroke-linecap="butt" stroke-miterlimit="10" stroke-linejoin="miter" fill="none" stroke="#c0c0c0" d="M 1080.973 40.305 C 1082.074 48.016 1083.398 57.289 1084.625 65.887 "/>
<path d="M 1088.105 65.5 L 1086.055 75.895 L 1081.176 66.492 Z M 1088.105 65.5 " fill="#c0c0c0"/>
<path stroke-width="2" stroke-linecap="butt" stroke-miterlimit="10" stroke-linejoin="miter" fill="none" stroke="#c0c0c0" d="M 1088.105 65.5 L 1086.055 75.895 L 1081.176 66.492 Z M 1088.105 65.5 "/>
<path stroke-width="2" stroke-linecap="butt" stroke-miterlimit="10" stroke-linejoin="miter" fill="none" stroke="#57d9d9" d="M 1300 148 L 1229 148 C 1223 148 1217 154 1217 160 L 1217 172 C 1217 178 1223 184 1229 184 L 1300 184 C 1306 184 1312 178 1312 172 L 1312 160 C 1312 154 1306 148 1300 148 "/>
<text xml:space="preserve" transform="matrix(1 0 0 1 0 0)" font-size="9.999756" font-family="Helvetica"><tspan y="163" x="1238 1243.2499 1248.4998 1256.7496 1261.9995 1267.2394 1272.4893 1276.9791 1282.9789 1288.2288">humannTool</tspan><tspan y="174" x="1225 1230.2499 1235.4998 1243.7496 1248.9995">name:</tspan></text>
<text xml:space="preserve" transform="matrix(1 0 0 1 0 0)" font-size="9.999756" font-family="Unnamed"><tspan y="174" x="1251.9894"> </tspan></text>
<text xml:space="preserve" transform="matrix(1 0 0 1 0 0)" font-size="9.999756" font-family="Helvetica"><tspan y="174" x="1254.9793 1260.2291 1265.479 1273.7289 1278.9788 1284.2186 1292.4685 1297.7184">name_map</tspan></text>
<path stroke-width="2" stroke-linecap="butt" stroke-miterlimit="10" stroke-linejoin="miter" fill="none" stroke="#c0c0c0" d="M 1245.219 184.305 C 1235.586 192.949 1223.77 203.551 1213.273 212.973 "/>
<path d="M 1215.34 215.82 L 1205.559 219.895 L 1210.664 210.613 Z M 1215.34 215.82 " fill="#c0c0c0"/>
<path stroke-width="2" stroke-linecap="butt" stroke-miterlimit="10" stroke-linejoin="miter" fill="none" stroke="#c0c0c0" d="M 1215.34 215.82 L 1205.559 219.895 L 1210.664 210.613 Z M 1215.34 215.82 "/>
<path stroke-width="2" stroke-linecap="butt" stroke-miterlimit="10" stroke-linejoin="miter" fill="none" stroke="#d95757" d="M 1293 76 L 1246 76 C 1240 76 1234 82 1234 88 L 1234 100 C 1234 106 1240 112 1246 112 L 1293 112 C 1299 112 1305 106 1305 100 L 1305 88 C 1305 82 1299 76 1293 76 "/>
<text xml:space="preserve" transform="matrix(1 0 0 1 0 0)" font-size="9.999756" font-family="Helvetica"><tspan y="96.5" x="1242 1245 1250.2499 1253.2398 1258.4896 1261.4896 1269.7395 1274.9894 1277.9793">reformat_</tspan></text>
<text xml:space="preserve" transform="matrix(1 0 0 1 0 0)" font-size="9.999756" font-family="Helvetica"><tspan y="96.5" x="1283.2291 1285.729">fi</tspan></text>
<text xml:space="preserve" transform="matrix(1 0 0 1 0 0)" font-size="9.999756" font-family="Helvetica"><tspan y="96.5" x="1288.479 1290.729">le</tspan></text>
<path stroke-width="2" stroke-linecap="butt" stroke-miterlimit="10" stroke-linejoin="miter" fill="none" stroke="#c0c0c0" d="M 1268.266 112.305 C 1267.715 120.016 1267.051 129.289 1266.438 137.887 "/>
<path d="M 1269.926 138.172 L 1265.723 147.895 L 1262.941 137.672 Z M 1269.926 138.172 " fill="#c0c0c0"/>
<path stroke-width="2" stroke-linecap="butt" stroke-miterlimit="10" stroke-linejoin="miter" fill="none" stroke="#c0c0c0" d="M 1269.926 138.172 L 1265.723 147.895 L 1262.941 137.672 Z M 1269.926 138.172 "/>
<path stroke-width="2" stroke-linecap="butt" stroke-miterlimit="10" stroke-linejoin="miter" fill="none" stroke="#d6d957" d="M 1353 4 L 1198 4 C 1192 4 1186 10 1186 16 L 1186 28 C 1186 34 1192 40 1198 40 L 1353 40 C 1359 40 1365 34 1365 28 L 1365 16 C 1365 10 1359 4 1353 4 "/>
<text xml:space="preserve" transform="matrix(1 0 0 1 0 0)" font-size="9.999756" font-family="Helvetica"><tspan y="19" x="1252.5 1257.7499 1262.9998 1268.2496 1273.4995 1278.7394 1283.9893 1289.2391 1292.229">kneaddata</tspan><tspan y="30" x="1194 1199.2499 1204.4998 1207.4896 1212.7395 1217.9894 1223.2393 1226.2291">dataset:</tspan></text>
<text xml:space="preserve" transform="matrix(1 0 0 1 0 0)" font-size="9.999756" font-family="Unnamed"><tspan y="30" x="1229.219"> </tspan></text>
<text xml:space="preserve" transform="matrix(1 0 0 1 0 0)" font-size="9.999756" font-family="Helvetica"><tspan y="30" x="1232.2089 1239.7088 1246.4485 1253.1882 1260.6881 1263.6881 1271.188 1279.4379 1284.6878 1287.6878 1295.1776 1300.4275 1305.6774 1310.9273 1313.9273 1319.9171 1325.167 1330.4169 1335.6668 1340.9166 1346.1665 1351.4064">RBAR-CM3-Run1-T48_L002</tspan></text>
<path stroke-width="2" stroke-linecap="butt" stroke-miterlimit="10" stroke-linejoin="miter" fill="none" stroke="#c0c0c0" d="M 1274.016 40.305 C 1273.355 48.016 1272.562 57.289 1271.824 65.887 "/>
<path d="M 1275.309 66.23 L 1270.965 75.895 L 1268.332 65.633 Z M 1275.309 66.23 " fill="#c0c0c0"/>
<path stroke-width="2" stroke-linecap="butt" stroke-miterlimit="10" stroke-linejoin="miter" fill="none" stroke="#c0c0c0" d="M 1275.309 66.23 L 1270.965 75.895 L 1268.332 65.633 Z M 1275.309 66.23 "/>
<path stroke-width="2" stroke-linecap="butt" stroke-miterlimit="10" stroke-linejoin="miter" fill="none" stroke="#57d9d9" d="M 1465 148 L 1394 148 C 1388 148 1382 154 1382 160 L 1382 172 C 1382 178 1388 184 1394 184 L 1465 184 C 1471 184 1477 178 1477 172 L 1477 160 C 1477 154 1471 148 1465 148 "/>
<text xml:space="preserve" transform="matrix(1 0 0 1 0 0)" font-size="9.999756" font-family="Helvetica"><tspan y="163" x="1403 1408.2499 1413.4998 1421.7496 1426.9995 1432.2394 1437.4893 1441.9791 1447.9789 1453.2288">humannTool</tspan><tspan y="174" x="1390 1395.2499 1400.4998 1408.7496 1413.9995">name:</tspan></text>
<text xml:space="preserve" transform="matrix(1 0 0 1 0 0)" font-size="9.999756" font-family="Unnamed"><tspan y="174" x="1416.9894"> </tspan></text>
<text xml:space="preserve" transform="matrix(1 0 0 1 0 0)" font-size="9.999756" font-family="Helvetica"><tspan y="174" x="1419.9793 1425.2291 1430.479 1438.7289 1443.9788 1449.2186 1457.4685 1462.7184">name_map</tspan></text>
<path stroke-width="2" stroke-linecap="butt" stroke-miterlimit="10" stroke-linejoin="miter" fill="none" stroke="#c0c0c0" d="M 1381.781 180.746 C 1335.332 194.125 1265.727 214.176 1223.375 226.379 "/>
<path d="M 1224.32 229.746 L 1213.742 229.152 L 1222.383 223.02 Z M 1224.32 229.746 " fill="#c0c0c0"/>
<path stroke-width="2" stroke-linecap="butt" stroke-miterlimit="10" stroke-linejoin="miter" fill="none" stroke="#c0c0c0" d="M 1224.32 229.746 L 1213.742 229.152 L 1222.383 223.02 Z M 1224.32 229.746 "/>
<path stroke-width="2" stroke-linecap="butt" stroke-miterlimit="10" stroke-linejoin="miter" fill="none" stroke="#d95757" d="M 1474 76 L 1427 76 C 1421 76 1415 82 1415 88 L 1415 100 C 1415 106 1421 112 1427 112 L 1474 112 C 1480 112 1486 106 1486 100 L 1486 88 C 1486 82 1480 76 1474 76 "/>
<text xml:space="preserve" transform="matrix(1 0 0 1 0 0)" font-size="9.999756" font-family="Helvetica"><tspan y="96.5" x="1423 1426 1431.2499 1434.2398 1439.4896 1442.4896 1450.7395 1455.9894 1458.9793">reformat_</tspan></text>
<text xml:space="preserve" transform="matrix(1 0 0 1 0 0)" font-size="9.999756" font-family="Helvetica"><tspan y="96.5" x="1464.2291 1466.729">fi</tspan></text>
<text xml:space="preserve" transform="matrix(1 0 0 1 0 0)" font-size="9.999756" font-family="Helvetica"><tspan y="96.5" x="1469.479 1471.729">le</tspan></text>
<path stroke-width="2" stroke-linecap="butt" stroke-miterlimit="10" stroke-linejoin="miter" fill="none" stroke="#c0c0c0" d="M 1445.309 112.305 C 1442.969 120.102 1440.152 129.492 1437.547 138.172 "/>
<path d="M 1440.855 139.324 L 1434.633 147.895 L 1434.152 137.312 Z M 1440.855 139.324 " fill="#c0c0c0"/>
<path stroke-width="2" stroke-linecap="butt" stroke-miterlimit="10" stroke-linejoin="miter" fill="none" stroke="#c0c0c0" d="M 1440.855 139.324 L 1434.633 147.895 L 1434.152 137.312 Z M 1440.855 139.324 "/>
<path stroke-width="2" stroke-linecap="butt" stroke-miterlimit="10" stroke-linejoin="miter" fill="none" stroke="#d6d957" d="M 1550 4 L 1395 4 C 1389 4 1383 10 1383 16 L 1383 28 C 1383 34 1389 40 1395 40 L 1550 40 C 1556 40 1562 34 1562 28 L 1562 16 C 1562 10 1556 4 1550 4 "/>
<text xml:space="preserve" transform="matrix(1 0 0 1 0 0)" font-size="9.999756" font-family="Helvetica"><tspan y="19" x="1449.5 1454.7499 1459.9998 1465.2496 1470.4995 1475.7394 1480.9893 1486.2391 1489.229">kneaddata</tspan><tspan y="30" x="1391 1396.2499 1401.4998 1404.4896 1409.7395 1414.9894 1420.2393 1423.2291">dataset:</tspan></text>
<text xml:space="preserve" transform="matrix(1 0 0 1 0 0)" font-size="9.999756" font-family="Unnamed"><tspan y="30" x="1426.219"> </tspan></text>
<text xml:space="preserve" transform="matrix(1 0 0 1 0 0)" font-size="9.999756" font-family="Helvetica"><tspan y="30" x="1429.2089 1436.7088 1443.4485 1450.1882 1457.6881 1460.6881 1468.188 1476.4379 1481.6878 1484.6878 1492.1776 1497.4275 1502.6774 1507.9273 1510.9273 1516.9171 1522.167 1527.4169 1532.6668 1537.9166 1543.1665 1548.4064">RBAR-CM3-Run1-T24_L002</tspan></text>
<path stroke-width="2" stroke-linecap="butt" stroke-miterlimit="10" stroke-linejoin="miter" fill="none" stroke="#c0c0c0" d="M 1467.062 40.305 C 1464.609 48.102 1461.66 57.492 1458.934 66.172 "/>
<path d="M 1462.215 67.406 L 1455.875 75.895 L 1455.535 65.305 Z M 1462.215 67.406 " fill="#c0c0c0"/>
<path stroke-width="2" stroke-linecap="butt" stroke-miterlimit="10" stroke-linejoin="miter" fill="none" stroke="#c0c0c0" d="M 1462.215 67.406 L 1455.875 75.895 L 1455.535 65.305 Z M 1462.215 67.406 "/>
<path stroke-width="2" stroke-linecap="butt" stroke-miterlimit="10" stroke-linejoin="miter" fill="none" stroke="#57d9d9" d="M 1646 148 L 1575 148 C 1569 148 1563 154 1563 160 L 1563 172 C 1563 178 1569 184 1575 184 L 1646 184 C 1652 184 1658 178 1658 172 L 1658 160 C 1658 154 1652 148 1646 148 "/>
<text xml:space="preserve" transform="matrix(1 0 0 1 0 0)" font-size="9.999756" font-family="Helvetica"><tspan y="163" x="1584 1589.2499 1594.4998 1602.7496 1607.9995 1613.2394 1618.4893 1622.9791 1628.9789 1634.2288">humannTool</tspan><tspan y="174" x="1571 1576.2499 1581.4998 1589.7496 1594.9995">name:</tspan></text>
<text xml:space="preserve" transform="matrix(1 0 0 1 0 0)" font-size="9.999756" font-family="Unnamed"><tspan y="174" x="1597.9894"> </tspan></text>
<text xml:space="preserve" transform="matrix(1 0 0 1 0 0)" font-size="9.999756" font-family="Helvetica"><tspan y="174" x="1600.9793 1606.2291 1611.479 1619.7289 1624.9788 1630.2186 1638.4685 1643.7184">name_map</tspan></text>
<path stroke-width="2" stroke-linecap="butt" stroke-miterlimit="10" stroke-linejoin="miter" fill="none" stroke="#c0c0c0" d="M 1562.688 174.895 C 1477.465 188.965 1301.039 218.09 1223.934 230.82 "/>
<path d="M 1224.172 234.328 L 1213.734 232.504 L 1223.031 227.422 Z M 1224.172 234.328 " fill="#c0c0c0"/>
<path stroke-width="2" stroke-linecap="butt" stroke-miterlimit="10" stroke-linejoin="miter" fill="none" stroke="#c0c0c0" d="M 1224.172 234.328 L 1213.734 232.504 L 1223.031 227.422 Z M 1224.172 234.328 "/>
<path stroke-width="2" stroke-linecap="butt" stroke-miterlimit="10" stroke-linejoin="miter" fill="none" stroke="#d95757" d="M 1663 76 L 1616 76 C 1610 76 1604 82 1604 88 L 1604 100 C 1604 106 1610 112 1616 112 L 1663 112 C 1669 112 1675 106 1675 100 L 1675 88 C 1675 82 1669 76 1663 76 "/>
<text xml:space="preserve" transform="matrix(1 0 0 1 0 0)" font-size="9.999756" font-family="Helvetica"><tspan y="96.5" x="1612 1615 1620.2499 1623.2398 1628.4896 1631.4896 1639.7395 1644.9894 1647.9793">reformat_</tspan></text>
<text xml:space="preserve" transform="matrix(1 0 0 1 0 0)" font-size="9.999756" font-family="Helvetica"><tspan y="96.5" x="1653.2291 1655.729">fi</tspan></text>
<text xml:space="preserve" transform="matrix(1 0 0 1 0 0)" font-size="9.999756" font-family="Helvetica"><tspan y="96.5" x="1658.479 1660.729">le</tspan></text>
<path stroke-width="2" stroke-linecap="butt" stroke-miterlimit="10" stroke-linejoin="miter" fill="none" stroke="#c0c0c0" d="M 1632.332 112.305 C 1629.066 120.188 1625.125 129.695 1621.496 138.453 "/>
<path d="M 1624.648 139.996 L 1617.586 147.895 L 1618.18 137.316 Z M 1624.648 139.996 " fill="#c0c0c0"/>
<path stroke-width="2" stroke-linecap="butt" stroke-miterlimit="10" stroke-linejoin="miter" fill="none" stroke="#c0c0c0" d="M 1624.648 139.996 L 1617.586 147.895 L 1618.18 137.316 Z M 1624.648 139.996 "/>
<path stroke-width="2" stroke-linecap="butt" stroke-miterlimit="10" stroke-linejoin="miter" fill="none" stroke="#d6d957" d="M 1747 4 L 1592 4 C 1586 4 1580 10 1580 16 L 1580 28 C 1580 34 1586 40 1592 40 L 1747 40 C 1753 40 1759 34 1759 28 L 1759 16 C 1759 10 1753 4 1747 4 "/>
<text xml:space="preserve" transform="matrix(1 0 0 1 0 0)" font-size="9.999756" font-family="Helvetica"><tspan y="19" x="1646.5 1651.7499 1656.9998 1662.2496 1667.4995 1672.7394 1677.9893 1683.2391 1686.229">kneaddata</tspan><tspan y="30" x="1588 1593.2499 1598.4998 1601.4896 1606.7395 1611.9894 1617.2393 1620.2291">dataset:</tspan></text>
<text xml:space="preserve" transform="matrix(1 0 0 1 0 0)" font-size="9.999756" font-family="Unnamed"><tspan y="30" x="1623.219"> </tspan></text>
<text xml:space="preserve" transform="matrix(1 0 0 1 0 0)" font-size="9.999756" font-family="Helvetica"><tspan y="30" x="1626.2089 1633.7088 1640.4485 1647.1882 1654.6881 1657.6881 1665.188 1673.4379 1678.6878 1681.6878 1689.1776 1694.4275 1699.6774 1704.9273 1707.9273 1713.9171 1719.167 1724.4169 1729.6668 1734.9166 1740.1665 1745.4064">RBAR-CM1-Run2-T24_L002</tspan></text>
<path stroke-width="2" stroke-linecap="butt" stroke-miterlimit="10" stroke-linejoin="miter" fill="none" stroke="#c0c0c0" d="M 1662.086 40.305 C 1658.707 48.188 1654.629 57.695 1650.879 66.453 "/>
<path d="M 1653.988 68.082 L 1646.832 75.895 L 1647.551 65.324 Z M 1653.988 68.082 " fill="#c0c0c0"/>
<path stroke-width="2" stroke-linecap="butt" stroke-miterlimit="10" stroke-linejoin="miter" fill="none" stroke="#c0c0c0" d="M 1653.988 68.082 L 1646.832 75.895 L 1647.551 65.324 Z M 1653.988 68.082 "/>
<path stroke-width="2" stroke-linecap="butt" stroke-miterlimit="10" stroke-linejoin="miter" fill="none" stroke="#57d9d9" d="M 1835 148 L 1764 148 C 1758 148 1752 154 1752 160 L 1752 172 C 1752 178 1758 184 1764 184 L 1835 184 C 1841 184 1847 178 1847 172 L 1847 160 C 1847 154 1841 148 1835 148 "/>
<text xml:space="preserve" transform="matrix(1 0 0 1 0 0)" font-size="9.999756" font-family="Helvetica"><tspan y="163" x="1773 1778.2499 1783.4998 1791.7496 1796.9995 1802.2394 1807.4893 1811.9791 1817.9789 1823.2288">humannTool</tspan><tspan y="174" x="1760 1765.2499 1770.4998 1778.7496 1783.9995">name:</tspan></text>
<text xml:space="preserve" transform="matrix(1 0 0 1 0 0)" font-size="9.999756" font-family="Unnamed"><tspan y="174" x="1786.9894"> </tspan></text>
<text xml:space="preserve" transform="matrix(1 0 0 1 0 0)" font-size="9.999756" font-family="Helvetica"><tspan y="174" x="1789.9793 1795.2291 1800.479 1808.7289 1813.9788 1819.2186 1827.4685 1832.7184">name_map</tspan></text>
<path stroke-width="2" stroke-linecap="butt" stroke-miterlimit="10" stroke-linejoin="miter" fill="none" stroke="#c0c0c0" d="M 1751.871 173.348 C 1726.781 176.637 1695.488 180.656 1667.5 184 C 1502.242 203.746 1304.711 224.668 1223.816 233.125 "/>
<path d="M 1223.949 236.629 L 1213.641 234.188 L 1223.223 229.668 Z M 1223.949 236.629 " fill="#c0c0c0"/>
<path stroke-width="2" stroke-linecap="butt" stroke-miterlimit="10" stroke-linejoin="miter" fill="none" stroke="#c0c0c0" d="M 1223.949 236.629 L 1213.641 234.188 L 1223.223 229.668 Z M 1223.949 236.629 "/>
<path stroke-width="2" stroke-linecap="butt" stroke-miterlimit="10" stroke-linejoin="miter" fill="none" stroke="#d95757" d="M 1856 76 L 1809 76 C 1803 76 1797 82 1797 88 L 1797 100 C 1797 106 1803 112 1809 112 L 1856 112 C 1862 112 1868 106 1868 100 L 1868 88 C 1868 82 1862 76 1856 76 "/>
<text xml:space="preserve" transform="matrix(1 0 0 1 0 0)" font-size="9.999756" font-family="Helvetica"><tspan y="96.5" x="1805 1808 1813.2499 1816.2398 1821.4896 1824.4896 1832.7395 1837.9894 1840.9793">reformat_</tspan></text>
<text xml:space="preserve" transform="matrix(1 0 0 1 0 0)" font-size="9.999756" font-family="Helvetica"><tspan y="96.5" x="1846.2291 1848.729">fi</tspan></text>
<text xml:space="preserve" transform="matrix(1 0 0 1 0 0)" font-size="9.999756" font-family="Helvetica"><tspan y="96.5" x="1851.479 1853.729">le</tspan></text>
<path stroke-width="2" stroke-linecap="butt" stroke-miterlimit="10" stroke-linejoin="miter" fill="none" stroke="#c0c0c0" d="M 1824.344 112.305 C 1820.586 120.273 1816.047 129.902 1811.883 138.734 "/>
<path d="M 1814.992 140.344 L 1807.562 147.895 L 1808.66 137.359 Z M 1814.992 140.344 " fill="#c0c0c0"/>
<path stroke-width="2" stroke-linecap="butt" stroke-miterlimit="10" stroke-linejoin="miter" fill="none" stroke="#c0c0c0" d="M 1814.992 140.344 L 1807.562 147.895 L 1808.66 137.359 Z M 1814.992 140.344 "/>
<path stroke-width="2" stroke-linecap="butt" stroke-miterlimit="10" stroke-linejoin="miter" fill="none" stroke="#d6d957" d="M 1944 4 L 1789 4 C 1783 4 1777 10 1777 16 L 1777 28 C 1777 34 1783 40 1789 40 L 1944 40 C 1950 40 1956 34 1956 28 L 1956 16 C 1956 10 1950 4 1944 4 "/>
<text xml:space="preserve" transform="matrix(1 0 0 1 0 0)" font-size="9.999756" font-family="Helvetica"><tspan y="19" x="1843.5 1848.7499 1853.9998 1859.2496 1864.4995 1869.7394 1874.9893 1880.2391 1883.229">kneaddata</tspan><tspan y="30" x="1785 1790.2499 1795.4998 1798.4896 1803.7395 1808.9894 1814.2393 1817.2291">dataset:</tspan></text>
<text xml:space="preserve" transform="matrix(1 0 0 1 0 0)" font-size="9.999756" font-family="Unnamed"><tspan y="30" x="1820.219"> </tspan></text>
<text xml:space="preserve" transform="matrix(1 0 0 1 0 0)" font-size="9.999756" font-family="Helvetica"><tspan y="30" x="1823.2089 1830.7088 1837.4485 1844.1882 1851.6881 1854.6881 1862.188 1870.4379 1875.6878 1878.6878 1886.1776 1891.4275 1896.6774 1901.9273 1904.9273 1910.9171 1916.167 1921.4169 1926.6668 1931.9166 1937.1665 1942.4064">RBAR-CM1-Run3-T24_L002</tspan></text>
<path stroke-width="2" stroke-linecap="butt" stroke-miterlimit="10" stroke-linejoin="miter" fill="none" stroke="#c0c0c0" d="M 1858.094 40.305 C 1854.227 48.273 1849.547 57.902 1845.258 66.734 "/>
<path d="M 1848.324 68.43 L 1840.809 75.895 L 1842.027 65.371 Z M 1848.324 68.43 " fill="#c0c0c0"/>
<path stroke-width="2" stroke-linecap="butt" stroke-miterlimit="10" stroke-linejoin="miter" fill="none" stroke="#c0c0c0" d="M 1848.324 68.43 L 1840.809 75.895 L 1842.027 65.371 Z M 1848.324 68.43 "/>
<path stroke-width="2" stroke-linecap="butt" stroke-miterlimit="10" stroke-linejoin="miter" fill="none" stroke="#57d9d9" d="M 2028 148 L 1957 148 C 1951 148 1945 154 1945 160 L 1945 172 C 1945 178 1951 184 1957 184 L 2028 184 C 2034 184 2040 178 2040 172 L 2040 160 C 2040 154 2034 148 2028 148 "/>
<text xml:space="preserve" transform="matrix(1 0 0 1 0 0)" font-size="9.999756" font-family="Helvetica"><tspan y="163" x="1966 1971.2499 1976.4998 1984.7496 1989.9995 1995.2394 2000.4893 2004.9791 2010.9789 2016.2288">humannTool</tspan><tspan y="174" x="1953 1958.2499 1963.4998 1971.7496 1976.9995">name:</tspan></text>
<text xml:space="preserve" transform="matrix(1 0 0 1 0 0)" font-size="9.999756" font-family="Unnamed"><tspan y="174" x="1979.9894"> </tspan></text>
<text xml:space="preserve" transform="matrix(1 0 0 1 0 0)" font-size="9.999756" font-family="Helvetica"><tspan y="174" x="1982.9793 1988.2291 1993.479 2001.7289 2006.9788 2012.2186 2020.4685 2025.7184">name_map</tspan></text>
<path stroke-width="2" stroke-linecap="butt" stroke-miterlimit="10" stroke-linejoin="miter" fill="none" stroke="#c0c0c0" d="M 1944.727 173.512 C 1918.68 176.926 1885.852 181.008 1856.5 184 C 1615.738 208.559 1325.305 228.113 1223.727 234.652 "/>
<path d="M 1223.867 238.148 L 1213.664 235.297 L 1223.418 231.164 Z M 1223.867 238.148 " fill="#c0c0c0"/>
<path stroke-width="2" stroke-linecap="butt" stroke-miterlimit="10" stroke-linejoin="miter" fill="none" stroke="#c0c0c0" d="M 1223.867 238.148 L 1213.664 235.297 L 1223.418 231.164 Z M 1223.867 238.148 "/>
<path stroke-width="2" stroke-linecap="butt" stroke-miterlimit="10" stroke-linejoin="miter" fill="none" stroke="#d95757" d="M 2051 76 L 2004 76 C 1998 76 1992 82 1992 88 L 1992 100 C 1992 106 1998 112 2004 112 L 2051 112 C 2057 112 2063 106 2063 100 L 2063 88 C 2063 82 2057 76 2051 76 "/>
<text xml:space="preserve" transform="matrix(1 0 0 1 0 0)" font-size="9.999756" font-family="Helvetica"><tspan y="96.5" x="2000 2003 2008.2499 2011.2398 2016.4896 2019.4896 2027.7395 2032.9894 2035.9793">reformat_</tspan></text>
<text xml:space="preserve" transform="matrix(1 0 0 1 0 0)" font-size="9.999756" font-family="Helvetica"><tspan y="96.5" x="2041.2291 2043.729">fi</tspan></text>
<text xml:space="preserve" transform="matrix(1 0 0 1 0 0)" font-size="9.999756" font-family="Helvetica"><tspan y="96.5" x="2046.479 2048.729">le</tspan></text>
<path stroke-width="2" stroke-linecap="butt" stroke-miterlimit="10" stroke-linejoin="miter" fill="none" stroke="#c0c0c0" d="M 2018.848 112.305 C 2014.863 120.273 2010.051 129.902 2005.633 138.734 "/>
<path d="M 2008.656 140.516 L 2001.051 147.895 L 2002.395 137.387 Z M 2008.656 140.516 " fill="#c0c0c0"/>
<path stroke-width="2" stroke-linecap="butt" stroke-miterlimit="10" stroke-linejoin="miter" fill="none" stroke="#c0c0c0" d="M 2008.656 140.516 L 2001.051 147.895 L 2002.395 137.387 Z M 2008.656 140.516 "/>
<path stroke-width="2" stroke-linecap="butt" stroke-miterlimit="10" stroke-linejoin="miter" fill="none" stroke="#d6d957" d="M 2141 4 L 1986 4 C 1980 4 1974 10 1974 16 L 1974 28 C 1974 34 1980 40 1986 40 L 2141 40 C 2147 40 2153 34 2153 28 L 2153 16 C 2153 10 2147 4 2141 4 "/>
<text xml:space="preserve" transform="matrix(1 0 0 1 0 0)" font-size="9.999756" font-family="Helvetica"><tspan y="19" x="2040.5 2045.7499 2050.9998 2056.2496 2061.4993 2066.739 2071.9888 2077.2386 2080.2286">kneaddata</tspan><tspan y="30" x="1982 1987.2499 1992.4998 1995.4896 2000.7395 2005.9894 2011.2393 2014.2291">dataset:</tspan></text>
<text xml:space="preserve" transform="matrix(1 0 0 1 0 0)" font-size="9.999756" font-family="Unnamed"><tspan y="30" x="2017.219"> </tspan></text>
<text xml:space="preserve" transform="matrix(1 0 0 1 0 0)" font-size="9.999756" font-family="Helvetica"><tspan y="30" x="2020.2089 2027.7088 2034.4485 2041.1882 2048.688 2051.6878 2059.1876 2067.4373 2072.687 2075.6868 2083.1766 2088.4263 2093.676 2098.9259 2101.9256 2107.9154 2113.165 2118.4149 2123.6646 2128.9144 2134.164 2139.4039">RBAR-CM1-Run3-T48_L002</tspan></text>
<path stroke-width="2" stroke-linecap="butt" stroke-miterlimit="10" stroke-linejoin="miter" fill="none" stroke="#c0c0c0" d="M 2054.602 40.305 C 2050.504 48.273 2045.551 57.902 2041.008 66.734 "/>
<path d="M 2043.984 68.602 L 2036.297 75.895 L 2037.758 65.402 Z M 2043.984 68.602 " fill="#c0c0c0"/>
<path stroke-width="2" stroke-linecap="butt" stroke-miterlimit="10" stroke-linejoin="miter" fill="none" stroke="#c0c0c0" d="M 2043.984 68.602 L 2036.297 75.895 L 2037.758 65.402 Z M 2043.984 68.602 "/>
<path stroke-width="2" stroke-linecap="butt" stroke-miterlimit="10" stroke-linejoin="miter" fill="none" stroke="#57d9d9" d="M 2223 148 L 2152 148 C 2146 148 2140 154 2140 160 L 2140 172 C 2140 178 2146 184 2152 184 L 2223 184 C 2229 184 2235 178 2235 172 L 2235 160 C 2235 154 2229 148 2223 148 "/>
<text xml:space="preserve" transform="matrix(1 0 0 1 0 0)" font-size="9.999756" font-family="Helvetica"><tspan y="163" x="2161 2166.2498 2171.4996 2179.7493 2184.999 2190.2388 2195.4886 2199.9786 2205.9783 2211.228">humannTool</tspan><tspan y="174" x="2148 2153.2498 2158.4996 2166.7493 2171.999">name:</tspan></text>
<text xml:space="preserve" transform="matrix(1 0 0 1 0 0)" font-size="9.999756" font-family="Unnamed"><tspan y="174" x="2174.989"> </tspan></text>
<text xml:space="preserve" transform="matrix(1 0 0 1 0 0)" font-size="9.999756" font-family="Helvetica"><tspan y="174" x="2177.979 2183.2288 2188.4786 2196.7283 2201.978 2207.2178 2215.4676 2220.7174">name_map</tspan></text>
<path stroke-width="2" stroke-linecap="butt" stroke-miterlimit="10" stroke-linejoin="miter" fill="none" stroke="#c0c0c0" d="M 2139.996 173.582 C 2113.422 177.078 2079.668 181.219 2049.5 184 C 1730.652 213.402 1343.98 230.605 1223.891 235.523 "/>
<path d="M 1223.887 239.027 L 1213.754 235.934 L 1223.602 232.031 Z M 1223.887 239.027 " fill="#c0c0c0"/>
<path stroke-width="2" stroke-linecap="butt" stroke-miterlimit="10" stroke-linejoin="miter" fill="none" stroke="#c0c0c0" d="M 1223.887 239.027 L 1213.754 235.934 L 1223.602 232.031 Z M 1223.887 239.027 "/>
<path stroke-width="2" stroke-linecap="butt" stroke-miterlimit="10" stroke-linejoin="miter" fill="none" stroke="#d95757" d="M 2247 76 L 2200 76 C 2194 76 2188 82 2188 88 L 2188 100 C 2188 106 2194 112 2200 112 L 2247 112 C 2253 112 2259 106 2259 100 L 2259 88 C 2259 82 2253 76 2247 76 "/>
<text xml:space="preserve" transform="matrix(1 0 0 1 0 0)" font-size="9.999756" font-family="Helvetica"><tspan y="96.5" x="2196 2198.9998 2204.2496 2207.2396 2212.4893 2215.489 2223.7388 2228.9886 2231.9786">reformat_</tspan></text>
<text xml:space="preserve" transform="matrix(1 0 0 1 0 0)" font-size="9.999756" font-family="Helvetica"><tspan y="96.5" x="2237.2283 2239.7283">fi</tspan></text>
<text xml:space="preserve" transform="matrix(1 0 0 1 0 0)" font-size="9.999756" font-family="Helvetica"><tspan y="96.5" x="2242.478 2244.728">le</tspan></text>
<path stroke-width="2" stroke-linecap="butt" stroke-miterlimit="10" stroke-linejoin="miter" fill="none" stroke="#c0c0c0" d="M 2214.602 112.305 C 2210.504 120.273 2205.551 129.902 2201.008 138.734 "/>
<path d="M 2203.984 140.602 L 2196.297 147.895 L 2197.758 137.402 Z M 2203.984 140.602 " fill="#c0c0c0"/>
<path stroke-width="2" stroke-linecap="butt" stroke-miterlimit="10" stroke-linejoin="miter" fill="none" stroke="#c0c0c0" d="M 2203.984 140.602 L 2196.297 147.895 L 2197.758 137.402 Z M 2203.984 140.602 "/>
<path stroke-width="2" stroke-linecap="butt" stroke-miterlimit="10" stroke-linejoin="miter" fill="none" stroke="#d6d957" d="M 2338 4 L 2183 4 C 2177 4 2171 10 2171 16 L 2171 28 C 2171 34 2177 40 2183 40 L 2338 40 C 2344 40 2350 34 2350 28 L 2350 16 C 2350 10 2344 4 2338 4 "/>
<text xml:space="preserve" transform="matrix(1 0 0 1 0 0)" font-size="9.999756" font-family="Helvetica"><tspan y="19" x="2237.5 2242.75 2247.9998 2253.2496 2258.4993 2263.739 2268.9888 2274.2386 2277.2286">kneaddata</tspan><tspan y="30" x="2179 2184.2498 2189.4996 2192.4896 2197.7393 2202.9893 2208.239 2211.229">dataset:</tspan></text>
<text xml:space="preserve" transform="matrix(1 0 0 1 0 0)" font-size="9.999756" font-family="Unnamed"><tspan y="30" x="2214.219"> </tspan></text>
<text xml:space="preserve" transform="matrix(1 0 0 1 0 0)" font-size="9.999756" font-family="Helvetica"><tspan y="30" x="2217.209 2224.7088 2231.4488 2238.1888 2245.6885 2248.6883 2256.188 2264.4378 2269.6876 2272.6873 2280.177 2285.4268 2290.6766 2295.9263 2298.926 2304.9158 2310.1656 2315.4154 2320.665 2325.9149 2331.1646 2336.4044">RBAR-CM1-Run2-T48_L002</tspan></text>
<path stroke-width="2" stroke-linecap="butt" stroke-miterlimit="10" stroke-linejoin="miter" fill="none" stroke="#c0c0c0" d="M 2251.355 40.305 C 2247.098 48.355 2241.945 58.105 2237.234 67.016 "/>
<path d="M 2240.309 68.691 L 2232.539 75.895 L 2234.121 65.418 Z M 2240.309 68.691 " fill="#c0c0c0"/>
<path stroke-width="2" stroke-linecap="butt" stroke-miterlimit="10" stroke-linejoin="miter" fill="none" stroke="#c0c0c0" d="M 2240.309 68.691 L 2232.539 75.895 L 2234.121 65.418 Z M 2240.309 68.691 "/>
</g>
</g>
</svg>
